<svg width="776" height="300" viewBox="0 0 776 300" fill="none" xmlns="http://www.w3.org/2000/svg">
<g filter="url(#filter0_dd_81_36)">
<rect x="30" y="30" width="716" height="240" fill="black"/>
</g>
<g filter="url(#filter1_d_81_36)">
<path d="M515.314 107.525C515.314 106.218 515.695 105.184 516.457 104.422C517.328 103.55 518.417 103.115 519.724 103.115C521.14 103.115 522.229 103.55 522.991 104.422C523.754 105.184 524.135 106.218 524.135 107.525C524.135 108.941 523.699 110.03 522.828 110.792C522.066 111.555 521.031 111.936 519.724 111.936C518.308 111.936 517.219 111.555 516.457 110.792C515.695 109.921 515.314 108.832 515.314 107.525ZM515.314 107.525C515.314 108.832 514.878 109.921 514.007 110.792C513.244 111.555 512.21 111.936 510.903 111.936C509.378 111.936 508.235 111.555 507.473 110.792C506.71 109.921 506.329 108.832 506.329 107.525C506.329 106.11 506.71 105.02 507.473 104.258C508.344 103.496 509.433 103.115 510.74 103.115C512.264 103.115 513.408 103.55 514.17 104.422C514.932 105.184 515.314 106.218 515.314 107.525ZM480.192 107.525C480.192 108.832 479.757 109.921 478.885 110.792C478.123 111.555 477.088 111.936 475.782 111.936C474.366 111.936 473.277 111.555 472.514 110.792C471.752 109.921 471.371 108.832 471.371 107.525C471.371 106.11 471.752 105.02 472.514 104.258C473.386 103.496 474.475 103.115 475.782 103.115C477.197 103.115 478.286 103.55 479.049 104.422C479.811 105.184 480.192 106.218 480.192 107.525ZM488.85 107.689C488.85 110.52 487.434 111.936 484.603 111.936C483.296 111.936 482.207 111.555 481.336 110.792C480.573 110.03 480.192 108.995 480.192 107.689C480.192 104.639 481.608 103.115 484.439 103.115C485.746 103.115 486.781 103.496 487.543 104.258C488.414 105.02 488.85 106.055 488.85 107.362V107.689ZM506.329 107.689C506.329 110.52 504.913 111.936 502.082 111.936C500.775 111.936 499.686 111.555 498.815 110.792C498.052 110.03 497.671 108.995 497.671 107.689C497.671 104.639 499.087 103.115 501.918 103.115C503.225 103.115 504.26 103.496 505.022 104.258C505.893 105.02 506.329 106.055 506.329 107.362V107.689ZM497.671 107.525C497.671 108.832 497.236 109.921 496.364 110.792C495.602 111.555 494.567 111.936 493.261 111.936C491.845 111.936 490.756 111.555 489.993 110.792C489.231 109.921 488.85 108.832 488.85 107.525C488.85 106.11 489.231 105.02 489.993 104.258C490.865 103.496 491.954 103.115 493.261 103.115C494.676 103.115 495.765 103.55 496.528 104.422C497.29 105.184 497.671 106.218 497.671 107.525ZM471.371 116.346C471.371 114.931 471.752 113.842 472.514 113.079C473.386 112.317 474.475 111.936 475.782 111.936C477.197 111.936 478.286 112.371 479.049 113.243C479.811 114.005 480.192 115.04 480.192 116.346C480.192 117.653 479.757 118.742 478.885 119.614C478.123 120.376 477.088 120.757 475.782 120.757C474.366 120.757 473.277 120.376 472.514 119.614C471.752 118.742 471.371 117.653 471.371 116.346ZM515.314 116.346C515.314 115.04 515.695 114.005 516.457 113.243C517.328 112.371 518.417 111.936 519.724 111.936C521.14 111.936 522.229 112.371 522.991 113.243C523.754 114.005 524.135 115.04 524.135 116.346C524.135 117.762 523.699 118.851 522.828 119.614C522.066 120.376 521.031 120.757 519.724 120.757C518.308 120.757 517.219 120.376 516.457 119.614C515.695 118.742 515.314 117.653 515.314 116.346ZM515.314 116.346C515.314 117.653 514.878 118.742 514.007 119.614C513.244 120.376 512.21 120.757 510.903 120.757C509.378 120.757 508.235 120.376 507.473 119.614C506.71 118.742 506.329 117.653 506.329 116.346C506.329 114.931 506.71 113.842 507.473 113.079C508.344 112.317 509.433 111.936 510.74 111.936C512.264 111.936 513.408 112.371 514.17 113.243C514.932 114.005 515.314 115.04 515.314 116.346ZM480.192 116.346C480.192 114.931 480.573 113.842 481.336 113.079C482.207 112.317 483.296 111.936 484.603 111.936C486.018 111.936 487.108 112.371 487.87 113.243C488.632 114.005 489.013 115.04 489.013 116.346C489.013 117.653 488.578 118.742 487.706 119.614C486.944 120.376 485.91 120.757 484.603 120.757C483.187 120.757 482.098 120.376 481.336 119.614C480.573 118.742 480.192 117.653 480.192 116.346ZM466.96 120.757C465.545 120.757 464.456 120.376 463.693 119.614C462.931 118.742 462.55 117.653 462.55 116.346C462.55 114.931 462.931 113.842 463.693 113.079C464.564 112.317 465.653 111.936 466.96 111.936C468.376 111.936 469.465 112.371 470.227 113.243C470.99 114.005 471.371 115.04 471.371 116.346C471.371 117.653 470.935 118.742 470.064 119.614C469.302 120.376 468.267 120.757 466.96 120.757ZM497.671 116.51C497.671 119.341 496.255 120.757 493.424 120.757C492.117 120.757 491.028 120.376 490.157 119.614C489.394 118.851 489.013 117.817 489.013 116.51C489.013 113.461 490.429 111.936 493.261 111.936C494.567 111.936 495.602 112.317 496.364 113.079C497.236 113.842 497.671 114.876 497.671 116.183V116.51ZM506.329 116.51C506.329 119.341 504.913 120.757 502.082 120.757C500.775 120.757 499.686 120.376 498.815 119.614C498.052 118.851 497.671 117.817 497.671 116.51C497.671 113.461 499.087 111.936 501.918 111.936C503.225 111.936 504.26 112.317 505.022 113.079C505.893 113.842 506.329 114.876 506.329 116.183V116.51ZM471.371 125.168C471.371 127.999 469.955 129.415 467.124 129.415C464.401 129.415 462.876 128.326 462.55 126.148C462.005 128.326 460.589 129.415 458.302 129.415C455.144 129.415 453.565 127.999 453.565 125.168C453.565 123.861 453.946 122.826 454.709 122.064C455.471 121.193 456.506 120.757 457.812 120.757C460.426 120.757 462.005 121.901 462.55 124.188C462.876 121.901 464.238 120.757 466.634 120.757C469.792 120.757 471.371 122.173 471.371 125.004V125.168ZM497.671 125.168C497.671 127.999 496.255 129.415 493.424 129.415C490.266 129.415 488.687 127.999 488.687 125.168C488.687 123.861 489.068 122.826 489.83 122.064C490.592 121.193 491.627 120.757 492.934 120.757C496.092 120.757 497.671 122.173 497.671 125.004V125.168ZM480.355 125.168C480.355 127.999 478.94 129.415 476.108 129.415C472.95 129.415 471.371 127.999 471.371 125.168C471.371 123.861 471.752 122.826 472.514 122.064C473.277 121.193 474.311 120.757 475.618 120.757C478.776 120.757 480.355 122.173 480.355 125.004V125.168ZM506.656 125.168C506.656 127.999 505.24 129.415 502.408 129.415C499.25 129.415 497.671 127.999 497.671 125.168C497.671 123.861 498.052 122.826 498.815 122.064C499.577 121.193 500.612 120.757 501.918 120.757C505.077 120.757 506.656 122.173 506.656 125.004V125.168ZM515.314 133.826C515.314 135.132 514.878 136.221 514.007 137.093C513.244 137.855 512.21 138.236 510.903 138.236C508.507 138.236 507.037 137.202 506.492 135.132C505.948 137.202 504.532 138.236 502.245 138.236C500.72 138.236 499.577 137.855 498.815 137.093C498.052 136.221 497.671 135.132 497.671 133.826C497.671 132.41 498.052 131.321 498.815 130.558C499.686 129.796 500.775 129.415 502.082 129.415C504.478 129.415 505.948 130.45 506.492 132.519C507.037 130.45 508.453 129.415 510.74 129.415C512.264 129.415 513.408 129.851 514.17 130.722C514.932 131.484 515.314 132.519 515.314 133.826ZM471.371 133.826C471.371 135.132 470.935 136.221 470.064 137.093C469.302 137.855 468.267 138.236 466.96 138.236C464.456 138.236 462.931 137.093 462.386 134.806C462.06 137.093 460.644 138.236 458.139 138.236C456.614 138.236 455.471 137.855 454.709 137.093C453.946 136.221 453.565 135.132 453.565 133.826C453.565 132.41 453.946 131.321 454.709 130.558C455.58 129.796 456.669 129.415 457.976 129.415C460.481 129.415 462.005 130.558 462.55 132.845C462.876 130.558 464.292 129.415 466.797 129.415C468.322 129.415 469.465 129.851 470.227 130.722C470.99 131.484 471.371 132.519 471.371 133.826ZM515.314 142.647C515.314 143.954 514.878 145.043 514.007 145.914C513.244 146.676 512.21 147.057 510.903 147.057C508.507 147.057 507.037 146.023 506.492 143.954C505.948 146.023 504.532 147.057 502.245 147.057C500.72 147.057 499.577 146.676 498.815 145.914C498.052 145.043 497.671 143.954 497.671 142.647C497.671 141.231 498.052 140.142 498.815 139.38C499.686 138.617 500.775 138.236 502.082 138.236C504.478 138.236 505.948 139.271 506.492 141.34C507.037 139.271 508.453 138.236 510.74 138.236C512.264 138.236 513.408 138.672 514.17 139.543C514.932 140.305 515.314 141.34 515.314 142.647ZM471.371 142.647C471.371 143.954 470.935 145.043 470.064 145.914C469.302 146.676 468.267 147.057 466.96 147.057C464.456 147.057 462.931 145.914 462.386 143.627C462.06 145.914 460.644 147.057 458.139 147.057C456.614 147.057 455.471 146.676 454.709 145.914C453.946 145.043 453.565 143.954 453.565 142.647C453.565 141.231 453.946 140.142 454.709 139.38C455.58 138.617 456.669 138.236 457.976 138.236C460.481 138.236 462.005 139.38 462.55 141.667C462.876 139.38 464.292 138.236 466.797 138.236C468.322 138.236 469.465 138.672 470.227 139.543C470.99 140.305 471.371 141.34 471.371 142.647ZM497.671 142.81C497.671 145.642 496.255 147.057 493.424 147.057C490.266 147.057 488.687 145.642 488.687 142.81C488.687 141.503 489.068 140.469 489.83 139.706C490.592 138.835 491.627 138.399 492.934 138.399C496.092 138.399 497.671 139.815 497.671 142.647V142.81ZM480.355 142.81C480.355 145.642 478.94 147.057 476.108 147.057C472.95 147.057 471.371 145.642 471.371 142.81C471.371 141.503 471.752 140.469 472.514 139.706C473.277 138.835 474.311 138.399 475.618 138.399C478.776 138.399 480.355 139.815 480.355 142.647V142.81ZM506.329 151.795C506.329 154.626 504.913 156.042 502.082 156.042C500.775 156.042 499.686 155.661 498.815 154.898C498.052 154.136 497.671 153.101 497.671 151.795C497.671 148.636 499.087 147.057 501.918 147.057C503.225 147.057 504.26 147.439 505.022 148.201C505.893 148.963 506.329 149.998 506.329 151.305V151.795ZM489.013 151.468C489.013 152.775 488.578 153.864 487.706 154.735C486.944 155.497 485.91 155.879 484.603 155.879C483.187 155.879 482.098 155.497 481.336 154.735C480.573 153.864 480.192 152.775 480.192 151.468C480.192 150.052 480.573 148.963 481.336 148.201C482.207 147.439 483.296 147.057 484.603 147.057C486.018 147.057 487.108 147.493 487.87 148.364C488.632 149.127 489.013 150.161 489.013 151.468ZM497.671 151.795C497.671 154.626 496.255 156.042 493.424 156.042C492.117 156.042 491.028 155.661 490.157 154.898C489.394 154.136 489.013 153.101 489.013 151.795C489.013 148.636 490.429 147.057 493.261 147.057C494.567 147.057 495.602 147.439 496.364 148.201C497.236 148.963 497.671 149.998 497.671 151.305V151.795ZM471.371 151.631C471.371 150.107 471.752 148.963 472.514 148.201C473.386 147.439 474.475 147.057 475.782 147.057C477.197 147.057 478.286 147.493 479.049 148.364C479.811 149.127 480.192 150.161 480.192 151.468V151.631C480.192 152.938 479.757 154.027 478.885 154.898C478.123 155.661 477.088 156.042 475.782 156.042C474.366 156.042 473.277 155.661 472.514 154.898C471.752 154.027 471.371 152.938 471.371 151.631ZM466.96 156.042C465.545 156.042 464.456 155.661 463.693 154.898C462.931 154.027 462.55 152.938 462.55 151.631C462.55 150.107 462.931 148.963 463.693 148.201C464.564 147.439 465.653 147.057 466.96 147.057C468.376 147.057 469.465 147.493 470.227 148.364C470.99 149.127 471.371 150.161 471.371 151.468V151.631C471.371 152.938 470.935 154.027 470.064 154.898C469.302 155.661 468.267 156.042 466.96 156.042ZM480.192 160.453C480.192 157.403 481.608 155.879 484.439 155.879C485.746 155.879 486.781 156.26 487.543 157.022C488.414 157.784 488.85 158.819 488.85 160.126V160.453C488.85 163.284 487.434 164.7 484.603 164.7C483.296 164.7 482.207 164.319 481.336 163.556C480.573 162.794 480.192 161.759 480.192 160.453ZM471.371 160.453C471.371 159.146 471.752 158.111 472.514 157.349C473.277 156.478 474.311 156.042 475.618 156.042C478.667 156.042 480.192 157.458 480.192 160.289V160.453C480.192 163.284 478.776 164.7 475.945 164.7C472.896 164.7 471.371 163.284 471.371 160.453ZM488.85 160.453C488.85 159.146 489.231 158.111 489.993 157.349C490.756 156.478 491.79 156.042 493.097 156.042C496.147 156.042 497.671 157.458 497.671 160.289V160.453C497.671 163.284 496.255 164.7 493.424 164.7C490.375 164.7 488.85 163.284 488.85 160.453ZM471.371 169.11C471.371 170.417 470.935 171.506 470.064 172.377C469.302 173.14 468.267 173.521 466.96 173.521C465.545 173.521 464.456 173.14 463.693 172.377C462.931 171.506 462.55 170.417 462.55 169.11C462.55 167.695 462.931 166.606 463.693 165.843C464.564 165.081 465.653 164.7 466.96 164.7C468.376 164.7 469.465 165.135 470.227 166.007C470.99 166.769 471.371 167.804 471.371 169.11ZM488.85 169.274C488.85 172.105 487.434 173.521 484.603 173.521C483.296 173.521 482.207 173.14 481.336 172.377C480.573 171.615 480.192 170.581 480.192 169.274C480.192 166.224 481.608 164.7 484.439 164.7C485.746 164.7 486.781 165.081 487.543 165.843C488.414 166.606 488.85 167.64 488.85 168.947V169.274ZM480.192 169.11C480.192 170.417 479.757 171.506 478.885 172.377C478.123 173.14 477.088 173.521 475.782 173.521C474.366 173.521 473.277 173.14 472.514 172.377C471.752 171.506 471.371 170.417 471.371 169.11C471.371 167.695 471.752 166.606 472.514 165.843C473.386 165.081 474.475 164.7 475.782 164.7C477.197 164.7 478.286 165.135 479.049 166.007C479.811 166.769 480.192 167.804 480.192 169.11ZM471.371 186.589C471.371 184.194 472.514 182.723 474.801 182.179C472.514 181.852 471.371 180.436 471.371 177.932C471.371 176.516 471.752 175.427 472.514 174.664C473.386 173.902 474.475 173.521 475.782 173.521C477.197 173.521 478.286 173.957 479.049 174.828C479.811 175.59 480.192 176.625 480.192 177.932C480.192 180.436 479.049 181.852 476.762 182.179C479.049 182.723 480.192 184.194 480.192 186.589C480.192 187.896 479.757 188.985 478.885 189.857C478.123 190.619 477.088 191 475.782 191C474.366 191 473.277 190.619 472.514 189.857C471.752 188.985 471.371 187.896 471.371 186.589ZM471.371 177.932C471.371 180.763 469.955 182.179 467.124 182.179C464.401 182.179 462.876 181.09 462.55 178.912C462.005 181.09 460.589 182.179 458.302 182.179C455.253 182.179 453.729 180.763 453.729 177.932C453.729 176.625 454.11 175.59 454.872 174.828C455.634 173.957 456.669 173.521 457.976 173.521C460.481 173.521 462.005 174.664 462.55 176.951C462.876 174.664 464.238 173.521 466.634 173.521C469.792 173.521 471.371 174.937 471.371 177.768V177.932ZM488.85 186.753C488.85 189.584 487.434 191 484.603 191C483.296 191 482.207 190.619 481.336 189.857C480.573 189.094 480.192 188.06 480.192 186.753C480.192 183.703 481.608 182.179 484.439 182.179C485.746 182.179 486.781 182.56 487.543 183.322C488.414 184.085 488.85 185.119 488.85 186.426V186.753ZM497.671 186.589C497.671 187.896 497.236 188.985 496.364 189.857C495.602 190.619 494.567 191 493.261 191C491.845 191 490.756 190.619 489.993 189.857C489.231 188.985 488.85 187.896 488.85 186.589C488.85 185.174 489.231 184.085 489.993 183.322C490.865 182.56 491.954 182.179 493.261 182.179C494.676 182.179 495.765 182.614 496.528 183.486C497.29 184.248 497.671 185.283 497.671 186.589ZM506.329 186.753C506.329 189.584 504.913 191 502.082 191C500.775 191 499.686 190.619 498.815 189.857C498.052 189.094 497.671 188.06 497.671 186.753C497.671 183.703 499.087 182.179 501.918 182.179C503.225 182.179 504.26 182.56 505.022 183.322C505.893 184.085 506.329 185.119 506.329 186.426V186.753ZM462.55 186.589C462.55 185.174 462.931 184.085 463.693 183.322C464.564 182.56 465.653 182.179 466.96 182.179C468.376 182.179 469.465 182.614 470.227 183.486C470.99 184.248 471.371 185.283 471.371 186.589C471.371 187.896 470.935 188.985 470.064 189.857C469.302 190.619 468.267 191 466.96 191C465.545 191 464.456 190.619 463.693 189.857C462.931 188.985 462.55 187.896 462.55 186.589ZM458.139 191C456.723 191 455.634 190.619 454.872 189.857C454.11 188.985 453.729 187.896 453.729 186.589C453.729 185.174 454.11 184.085 454.872 183.322C455.743 182.56 456.832 182.179 458.139 182.179C459.555 182.179 460.644 182.614 461.406 183.486C462.169 184.248 462.55 185.283 462.55 186.589C462.55 187.896 462.114 188.985 461.243 189.857C460.481 190.619 459.446 191 458.139 191ZM514.987 186.753C514.987 189.584 513.571 191 510.74 191C509.433 191 508.344 190.619 507.473 189.857C506.71 189.094 506.329 188.06 506.329 186.753C506.329 183.703 507.745 182.179 510.576 182.179C511.883 182.179 512.918 182.56 513.68 183.322C514.551 184.085 514.987 185.119 514.987 186.426V186.753ZM462.55 195.411C462.55 193.995 462.931 192.906 463.693 192.143C464.564 191.381 465.653 191 466.96 191C468.376 191 469.465 191.381 470.227 192.143C470.99 193.015 471.371 194.104 471.371 195.411C471.371 196.717 470.935 197.752 470.064 198.514C469.302 199.386 468.267 199.821 466.96 199.821C465.545 199.821 464.456 199.386 463.693 198.514C462.931 197.752 462.55 196.717 462.55 195.411ZM515.314 195.411C515.314 196.717 514.878 197.752 514.007 198.514C513.244 199.386 512.21 199.821 510.903 199.821C509.378 199.821 508.235 199.386 507.473 198.514C506.71 197.752 506.329 196.717 506.329 195.411C506.329 193.995 506.71 192.906 507.473 192.143C508.344 191.381 509.433 191 510.74 191C512.264 191 513.408 191.381 514.17 192.143C514.932 193.015 515.314 194.104 515.314 195.411ZM471.371 195.411C471.371 193.995 471.752 192.906 472.514 192.143C473.386 191.381 474.475 191 475.782 191C477.197 191 478.286 191.381 479.049 192.143C479.811 193.015 480.192 194.104 480.192 195.411C480.192 196.717 479.757 197.752 478.885 198.514C478.123 199.386 477.088 199.821 475.782 199.821C474.366 199.821 473.277 199.386 472.514 198.514C471.752 197.752 471.371 196.717 471.371 195.411ZM488.85 195.574C488.85 198.405 487.434 199.821 484.603 199.821C483.296 199.821 482.207 199.44 481.336 198.678C480.573 197.915 480.192 196.881 480.192 195.574C480.192 192.525 481.608 191 484.439 191C485.746 191 486.781 191.381 487.543 192.143C488.414 192.906 488.85 193.94 488.85 195.247V195.574ZM497.671 195.411C497.671 196.717 497.236 197.752 496.364 198.514C495.602 199.386 494.567 199.821 493.261 199.821C491.845 199.821 490.756 199.386 489.993 198.514C489.231 197.752 488.85 196.717 488.85 195.411C488.85 193.995 489.231 192.906 489.993 192.143C490.865 191.381 491.954 191 493.261 191C494.676 191 495.765 191.381 496.528 192.143C497.29 193.015 497.671 194.104 497.671 195.411ZM506.329 195.574C506.329 198.405 504.913 199.821 502.082 199.821C500.775 199.821 499.686 199.44 498.815 198.678C498.052 197.915 497.671 196.881 497.671 195.574C497.671 192.525 499.087 191 501.918 191C503.225 191 504.26 191.381 505.022 192.143C505.893 192.906 506.329 193.94 506.329 195.247V195.574ZM453.565 195.411C453.565 193.995 453.946 192.906 454.709 192.143C455.58 191.381 456.669 191 457.976 191C459.5 191 460.644 191.381 461.406 192.143C462.169 193.015 462.55 194.104 462.55 195.411C462.55 196.717 462.114 197.752 461.243 198.514C460.481 199.386 459.446 199.821 458.139 199.821C456.614 199.821 455.471 199.386 454.709 198.514C453.946 197.752 453.565 196.717 453.565 195.411ZM524.298 195.411C524.298 196.717 523.863 197.752 522.991 198.514C522.229 199.386 521.194 199.821 519.888 199.821C518.363 199.821 517.219 199.386 516.457 198.514C515.695 197.752 515.314 196.717 515.314 195.411C515.314 193.995 515.695 192.906 516.457 192.143C517.328 191.381 518.417 191 519.724 191C521.249 191 522.392 191.381 523.155 192.143C523.917 193.015 524.298 194.104 524.298 195.411ZM449.155 199.821C447.739 199.821 446.65 199.386 445.887 198.514C445.125 197.752 444.744 196.717 444.744 195.411C444.744 193.995 445.125 192.906 445.887 192.143C446.759 191.381 447.848 191 449.155 191C450.57 191 451.659 191.381 452.422 192.143C453.184 193.015 453.565 194.104 453.565 195.411C453.565 196.717 453.13 197.752 452.258 198.514C451.496 199.386 450.461 199.821 449.155 199.821ZM515.314 204.232C515.314 202.925 515.695 201.836 516.457 200.965C517.328 200.202 518.417 199.821 519.724 199.821C521.14 199.821 522.229 200.202 522.991 200.965C523.754 201.836 524.135 202.925 524.135 204.232C524.135 205.648 523.699 206.737 522.828 207.499C522.066 208.261 521.031 208.642 519.724 208.642C518.308 208.642 517.219 208.207 516.457 207.336C515.695 206.573 515.314 205.539 515.314 204.232ZM453.565 204.232C453.565 205.539 453.13 206.573 452.258 207.336C451.496 208.207 450.461 208.642 449.155 208.642C447.739 208.642 446.65 208.207 445.887 207.336C445.125 206.573 444.744 205.539 444.744 204.232C444.744 202.816 445.125 201.727 445.887 200.965C446.759 200.202 447.848 199.821 449.155 199.821C450.57 199.821 451.659 200.202 452.422 200.965C453.184 201.836 453.565 202.925 453.565 204.232ZM515.314 204.232C515.314 205.539 514.878 206.573 514.007 207.336C513.244 208.207 512.21 208.642 510.903 208.642C509.378 208.642 508.235 208.207 507.473 207.336C506.71 206.573 506.329 205.539 506.329 204.232C506.329 202.816 506.71 201.727 507.473 200.965C508.344 200.202 509.433 199.821 510.74 199.821C512.264 199.821 513.408 200.202 514.17 200.965C514.932 201.836 515.314 202.925 515.314 204.232ZM462.55 204.232C462.55 205.539 462.114 206.573 461.243 207.336C460.481 208.207 459.446 208.642 458.139 208.642C456.614 208.642 455.471 208.207 454.709 207.336C453.946 206.573 453.565 205.539 453.565 204.232C453.565 202.816 453.946 201.727 454.709 200.965C455.58 200.202 456.669 199.821 457.976 199.821C459.5 199.821 460.644 200.202 461.406 200.965C462.169 201.836 462.55 202.925 462.55 204.232ZM497.671 212.726C497.671 209.895 499.087 208.479 501.918 208.479C503.225 208.479 504.26 208.86 505.022 209.623C505.893 210.385 506.329 211.419 506.329 212.726C506.329 215.776 504.913 217.3 502.082 217.3C500.775 217.3 499.686 216.919 498.815 216.157C498.052 215.394 497.671 214.36 497.671 213.053V212.726ZM488.85 212.89C488.85 211.583 489.231 210.494 489.993 209.623C490.865 208.86 491.954 208.479 493.261 208.479C494.676 208.479 495.765 208.86 496.528 209.623C497.29 210.494 497.671 211.583 497.671 212.89C497.671 214.305 497.236 215.394 496.364 216.157C495.602 216.919 494.567 217.3 493.261 217.3C491.845 217.3 490.756 216.865 489.993 215.993C489.231 215.231 488.85 214.196 488.85 212.89ZM480.192 212.726C480.192 209.895 481.608 208.479 484.439 208.479C485.746 208.479 486.781 208.86 487.543 209.623C488.414 210.385 488.85 211.419 488.85 212.726C488.85 215.776 487.434 217.3 484.603 217.3C483.296 217.3 482.207 216.919 481.336 216.157C480.573 215.394 480.192 214.36 480.192 213.053V212.726ZM471.371 212.89C471.371 211.583 471.752 210.494 472.514 209.623C473.386 208.86 474.475 208.479 475.782 208.479C477.197 208.479 478.286 208.86 479.049 209.623C479.811 210.494 480.192 211.583 480.192 212.89C480.192 214.305 479.757 215.394 478.885 216.157C478.123 216.919 477.088 217.3 475.782 217.3C474.366 217.3 473.277 216.865 472.514 215.993C471.752 215.231 471.371 214.196 471.371 212.89ZM462.55 212.89C462.55 211.583 462.931 210.494 463.693 209.623C464.564 208.86 465.653 208.479 466.96 208.479C468.376 208.479 469.465 208.86 470.227 209.623C470.99 210.494 471.371 211.583 471.371 212.89C471.371 214.305 470.935 215.394 470.064 216.157C469.302 216.919 468.267 217.3 466.96 217.3C465.545 217.3 464.456 216.865 463.693 215.993C462.931 215.231 462.55 214.196 462.55 212.89ZM462.55 213.053C462.55 215.885 461.134 217.3 458.302 217.3C455.144 217.3 453.565 215.885 453.565 213.053C453.565 211.746 453.946 210.657 454.709 209.786C455.471 209.024 456.506 208.642 457.812 208.642C460.971 208.642 462.55 210.058 462.55 212.89V213.053ZM453.565 213.053C453.565 215.885 452.149 217.3 449.318 217.3C446.269 217.3 444.744 215.885 444.744 213.053C444.744 211.746 445.125 210.657 445.887 209.786C446.65 209.024 447.684 208.642 448.991 208.642C452.041 208.642 453.565 210.058 453.565 212.89V213.053ZM515.314 213.053C515.314 211.746 515.695 210.657 516.457 209.786C517.219 209.024 518.254 208.642 519.561 208.642C522.719 208.642 524.298 210.058 524.298 212.89V213.053C524.298 215.885 522.882 217.3 520.051 217.3C516.893 217.3 515.314 215.885 515.314 213.053ZM506.329 213.053C506.329 211.746 506.71 210.657 507.473 209.786C508.235 209.024 509.269 208.642 510.576 208.642C513.734 208.642 515.314 210.058 515.314 212.89V213.053C515.314 215.885 513.898 217.3 511.066 217.3C507.908 217.3 506.329 215.885 506.329 213.053ZM488.85 221.711C488.85 220.404 489.231 219.315 489.993 218.444C490.865 217.681 491.954 217.3 493.261 217.3C494.676 217.3 495.765 217.681 496.528 218.444C497.29 219.315 497.671 220.404 497.671 221.711C497.671 223.127 497.236 224.216 496.364 224.978C495.602 225.74 494.567 226.121 493.261 226.121C491.845 226.121 490.756 225.686 489.993 224.815C489.231 224.052 488.85 223.018 488.85 221.711ZM497.671 221.547C497.671 218.716 499.087 217.3 501.918 217.3C503.225 217.3 504.26 217.681 505.022 218.444C505.893 219.206 506.329 220.241 506.329 221.547C506.329 224.597 504.913 226.121 502.082 226.121C500.775 226.121 499.686 225.74 498.815 224.978C498.052 224.216 497.671 223.181 497.671 221.874V221.547ZM471.371 221.711C471.371 220.404 471.752 219.315 472.514 218.444C473.386 217.681 474.475 217.3 475.782 217.3C477.197 217.3 478.286 217.681 479.049 218.444C479.811 219.315 480.192 220.404 480.192 221.711C480.192 223.127 479.757 224.216 478.885 224.978C478.123 225.74 477.088 226.121 475.782 226.121C474.366 226.121 473.277 225.686 472.514 224.815C471.752 224.052 471.371 223.018 471.371 221.711ZM462.55 221.711C462.55 220.404 462.931 219.315 463.693 218.444C464.564 217.681 465.653 217.3 466.96 217.3C468.376 217.3 469.465 217.681 470.227 218.444C470.99 219.315 471.371 220.404 471.371 221.711C471.371 223.127 470.935 224.216 470.064 224.978C469.302 225.74 468.267 226.121 466.96 226.121C465.545 226.121 464.456 225.686 463.693 224.815C462.931 224.052 462.55 223.018 462.55 221.711ZM515.314 221.711C515.314 224.542 513.898 225.958 511.066 225.958C507.908 225.958 506.329 224.542 506.329 221.711C506.329 220.404 506.71 219.315 507.473 218.444C508.235 217.681 509.269 217.3 510.576 217.3C513.734 217.3 515.314 218.716 515.314 221.547V221.711ZM462.55 221.711C462.55 224.542 461.134 225.958 458.302 225.958C455.144 225.958 453.565 224.542 453.565 221.711C453.565 220.404 453.946 219.315 454.709 218.444C455.471 217.681 456.506 217.3 457.812 217.3C460.971 217.3 462.55 218.716 462.55 221.547V221.711ZM480.192 221.547C480.192 218.716 481.608 217.3 484.439 217.3C485.746 217.3 486.781 217.681 487.543 218.444C488.414 219.206 488.85 220.241 488.85 221.547C488.85 224.597 487.434 226.121 484.603 226.121C483.296 226.121 482.207 225.74 481.336 224.978C480.573 224.216 480.192 223.181 480.192 221.874V221.547ZM550.808 107.525C550.808 110.357 549.392 111.773 546.56 111.773C543.511 111.773 541.986 110.357 541.986 107.525C541.986 106.218 542.368 105.184 543.13 104.422C543.892 103.55 544.927 103.115 546.234 103.115C549.283 103.115 550.808 104.53 550.808 107.362V107.525ZM559.629 107.525C559.629 110.357 558.213 111.773 555.382 111.773C552.332 111.773 550.808 110.357 550.808 107.525C550.808 106.218 551.189 105.184 551.951 104.422C552.714 103.55 553.748 103.115 555.055 103.115C558.104 103.115 559.629 104.53 559.629 107.362V107.525ZM568.45 107.525C568.45 110.357 567.034 111.773 564.203 111.773C561.154 111.773 559.629 110.357 559.629 107.525C559.629 106.218 560.01 105.184 560.772 104.422C561.535 103.55 562.569 103.115 563.876 103.115C566.925 103.115 568.45 104.53 568.45 107.362V107.525ZM577.271 107.525C577.271 110.357 575.856 111.773 573.024 111.773C569.975 111.773 568.45 110.357 568.45 107.525C568.45 106.218 568.831 105.184 569.594 104.422C570.356 103.55 571.391 103.115 572.697 103.115C575.747 103.115 577.271 104.53 577.271 107.362V107.525ZM559.629 116.183C559.629 114.876 560.01 113.842 560.772 113.079C561.535 112.208 562.569 111.773 563.876 111.773C566.925 111.773 568.45 113.188 568.45 116.02V116.183C568.45 119.015 567.034 120.43 564.203 120.43C561.154 120.43 559.629 119.015 559.629 116.183ZM550.808 116.183C550.808 114.876 551.189 113.842 551.951 113.079C552.714 112.208 553.748 111.773 555.055 111.773C558.104 111.773 559.629 113.188 559.629 116.02V116.183C559.629 119.015 558.213 120.43 555.382 120.43C552.332 120.43 550.808 119.015 550.808 116.183ZM542.15 116.183C542.15 117.49 541.714 118.579 540.843 119.45C540.081 120.213 539.046 120.594 537.739 120.594C536.323 120.594 535.234 120.213 534.472 119.45C533.71 118.579 533.329 117.49 533.329 116.183C533.329 114.767 533.71 113.678 534.472 112.916C535.343 112.154 536.432 111.773 537.739 111.773C539.155 111.773 540.244 112.208 541.006 113.079C541.769 113.842 542.15 114.876 542.15 116.183ZM542.15 125.004C542.15 122.5 543.293 120.975 545.58 120.43C543.293 120.104 542.15 118.742 542.15 116.346C542.15 113.297 543.566 111.773 546.397 111.773C547.704 111.773 548.739 112.154 549.501 112.916C550.372 113.678 550.808 114.713 550.808 116.02V116.346C550.808 118.851 549.664 120.267 547.377 120.594C549.664 120.92 550.808 122.282 550.808 124.678V125.004C550.808 127.836 549.392 129.252 546.56 129.252C545.254 129.252 544.165 128.87 543.293 128.108C542.531 127.346 542.15 126.311 542.15 125.004ZM577.271 116.183C577.271 118.688 576.128 120.104 573.841 120.43C576.128 120.975 577.271 122.445 577.271 124.841C577.271 126.148 576.836 127.237 575.964 128.108C575.202 128.87 574.168 129.252 572.861 129.252C571.445 129.252 570.356 128.87 569.594 128.108C568.831 127.237 568.45 126.148 568.45 124.841C568.45 122.445 569.594 120.975 571.881 120.43C569.594 120.104 568.45 118.688 568.45 116.183C568.45 114.767 568.831 113.678 569.594 112.916C570.465 112.154 571.554 111.773 572.861 111.773C574.276 111.773 575.365 112.208 576.128 113.079C576.89 113.842 577.271 114.876 577.271 116.183ZM586.093 116.183C586.093 117.49 585.657 118.579 584.786 119.45C584.023 120.213 582.989 120.594 581.682 120.594C580.266 120.594 579.177 120.213 578.415 119.45C577.652 118.579 577.271 117.49 577.271 116.183C577.271 114.767 577.652 113.678 578.415 112.916C579.286 112.154 580.375 111.773 581.682 111.773C583.098 111.773 584.187 112.208 584.949 113.079C585.711 113.842 586.093 114.876 586.093 116.183ZM533.329 125.004C533.329 126.311 532.893 127.4 532.022 128.271C531.259 129.034 530.225 129.415 528.918 129.415C527.502 129.415 526.413 129.034 525.651 128.271C524.889 127.4 524.507 126.311 524.507 125.004C524.507 123.589 524.889 122.5 525.651 121.737C526.522 120.975 527.611 120.594 528.918 120.594C530.334 120.594 531.423 121.029 532.185 121.901C532.947 122.663 533.329 123.697 533.329 125.004ZM537.739 129.415C536.323 129.415 535.234 129.034 534.472 128.271C533.71 127.4 533.329 126.311 533.329 125.004C533.329 123.589 533.71 122.5 534.472 121.737C535.343 120.975 536.432 120.594 537.739 120.594C539.155 120.594 540.244 121.029 541.006 121.901C541.769 122.663 542.15 123.697 542.15 125.004C542.15 126.311 541.714 127.4 540.843 128.271C540.081 129.034 539.046 129.415 537.739 129.415ZM586.093 125.004C586.093 126.42 585.657 127.509 584.786 128.271C584.023 129.034 582.989 129.415 581.682 129.415C580.266 129.415 579.177 129.034 578.415 128.271C577.652 127.4 577.271 126.311 577.271 125.004C577.271 123.697 577.652 122.663 578.415 121.901C579.286 121.029 580.375 120.594 581.682 120.594C583.098 120.594 584.187 121.029 584.949 121.901C585.711 122.663 586.093 123.697 586.093 125.004ZM590.503 129.415C589.087 129.415 587.998 129.034 587.236 128.271C586.474 127.4 586.093 126.311 586.093 125.004C586.093 123.697 586.474 122.663 587.236 121.901C588.107 121.029 589.196 120.594 590.503 120.594C591.919 120.594 593.008 121.029 593.77 121.901C594.533 122.663 594.914 123.697 594.914 125.004C594.914 126.42 594.478 127.509 593.607 128.271C592.845 129.034 591.81 129.415 590.503 129.415ZM533.329 133.826C533.329 135.132 532.893 136.221 532.022 137.093C531.259 137.855 530.225 138.236 528.918 138.236C527.502 138.236 526.413 137.855 525.651 137.093C524.889 136.221 524.507 135.132 524.507 133.826C524.507 132.41 524.889 131.321 525.651 130.558C526.522 129.796 527.611 129.415 528.918 129.415C530.334 129.415 531.423 129.851 532.185 130.722C532.947 131.484 533.329 132.519 533.329 133.826ZM542.15 133.826C542.15 135.132 541.714 136.221 540.843 137.093C540.081 137.855 539.046 138.236 537.739 138.236C536.323 138.236 535.234 137.855 534.472 137.093C533.71 136.221 533.329 135.132 533.329 133.826C533.329 132.41 533.71 131.321 534.472 130.558C535.343 129.796 536.432 129.415 537.739 129.415C539.155 129.415 540.244 129.851 541.006 130.722C541.769 131.484 542.15 132.519 542.15 133.826ZM586.093 133.826C586.093 135.241 585.657 136.33 584.786 137.093C584.023 137.855 582.989 138.236 581.682 138.236C580.266 138.236 579.177 137.855 578.415 137.093C577.652 136.221 577.271 135.132 577.271 133.826C577.271 132.519 577.652 131.484 578.415 130.722C579.286 129.851 580.375 129.415 581.682 129.415C583.098 129.415 584.187 129.851 584.949 130.722C585.711 131.484 586.093 132.519 586.093 133.826ZM590.503 138.236C589.087 138.236 587.998 137.855 587.236 137.093C586.474 136.221 586.093 135.132 586.093 133.826C586.093 132.519 586.474 131.484 587.236 130.722C588.107 129.851 589.196 129.415 590.503 129.415C591.919 129.415 593.008 129.851 593.77 130.722C594.533 131.484 594.914 132.519 594.914 133.826C594.914 135.241 594.478 136.33 593.607 137.093C592.845 137.855 591.81 138.236 590.503 138.236ZM577.271 142.647C577.271 143.954 576.836 145.043 575.964 145.914C575.202 146.676 574.168 147.057 572.861 147.057C571.445 147.057 570.356 146.676 569.594 145.914C568.831 145.043 568.45 143.954 568.45 142.647C568.45 141.231 568.831 140.142 569.594 139.38C570.465 138.617 571.554 138.236 572.861 138.236C574.276 138.236 575.365 138.672 576.128 139.543C576.89 140.305 577.271 141.34 577.271 142.647ZM559.629 142.647C559.629 141.231 560.01 140.142 560.772 139.38C561.644 138.617 562.733 138.236 564.04 138.236C565.455 138.236 566.544 138.672 567.307 139.543C568.069 140.305 568.45 141.34 568.45 142.647C568.45 143.954 568.014 145.043 567.143 145.914C566.381 146.676 565.346 147.057 564.04 147.057C562.624 147.057 561.535 146.676 560.772 145.914C560.01 145.043 559.629 143.954 559.629 142.647ZM550.808 142.647C550.808 141.231 551.189 140.142 551.951 139.38C552.822 138.617 553.911 138.236 555.218 138.236C556.634 138.236 557.723 138.672 558.485 139.543C559.248 140.305 559.629 141.34 559.629 142.647C559.629 143.954 559.193 145.043 558.322 145.914C557.56 146.676 556.525 147.057 555.218 147.057C553.803 147.057 552.714 146.676 551.951 145.914C551.189 145.043 550.808 143.954 550.808 142.647ZM533.329 142.647C533.329 141.231 533.71 140.142 534.472 139.38C535.343 138.617 536.432 138.236 537.739 138.236C540.135 138.236 541.605 139.38 542.15 141.667C542.477 139.38 543.892 138.236 546.397 138.236C547.813 138.236 548.902 138.672 549.664 139.543C550.427 140.305 550.808 141.34 550.808 142.647C550.808 143.954 550.372 145.043 549.501 145.914C548.739 146.676 547.704 147.057 546.397 147.057C544.001 147.057 542.531 145.914 541.986 143.627C541.66 145.914 540.244 147.057 537.739 147.057C536.323 147.057 535.234 146.676 534.472 145.914C533.71 145.043 533.329 143.954 533.329 142.647ZM528.918 147.057C527.502 147.057 526.413 146.676 525.651 145.914C524.889 145.043 524.507 143.954 524.507 142.647C524.507 141.231 524.889 140.142 525.651 139.38C526.522 138.617 527.611 138.236 528.918 138.236C530.334 138.236 531.423 138.672 532.185 139.543C532.947 140.305 533.329 141.34 533.329 142.647C533.329 143.954 532.893 145.043 532.022 145.914C531.259 146.676 530.225 147.057 528.918 147.057ZM586.093 142.647C586.093 141.34 586.474 140.305 587.236 139.543C588.107 138.672 589.196 138.236 590.503 138.236C591.919 138.236 593.008 138.672 593.77 139.543C594.533 140.305 594.914 141.34 594.914 142.647C594.914 144.062 594.478 145.152 593.607 145.914C592.845 146.676 591.81 147.057 590.503 147.057C589.087 147.057 587.998 146.676 587.236 145.914C586.474 145.043 586.093 143.954 586.093 142.647ZM577.271 142.647C577.271 141.34 577.652 140.305 578.415 139.543C579.286 138.672 580.375 138.236 581.682 138.236C583.098 138.236 584.187 138.672 584.949 139.543C585.711 140.305 586.093 141.34 586.093 142.647C586.093 144.062 585.657 145.152 584.786 145.914C584.023 146.676 582.989 147.057 581.682 147.057C580.266 147.057 579.177 146.676 578.415 145.914C577.652 145.043 577.271 143.954 577.271 142.647ZM533.329 151.468C533.329 150.161 533.71 149.127 534.472 148.364C535.234 147.493 536.323 147.057 537.739 147.057C540.135 147.057 541.605 148.201 542.15 150.488C542.477 148.201 543.892 147.057 546.397 147.057C547.813 147.057 548.902 147.493 549.664 148.364C550.427 149.127 550.808 150.161 550.808 151.468C550.808 152.775 550.372 153.864 549.501 154.735C548.739 155.497 547.704 155.879 546.397 155.879C544.001 155.879 542.531 154.735 541.986 152.448C541.769 153.537 541.279 154.408 540.516 155.062C539.754 155.606 538.828 155.879 537.739 155.879C537.63 155.879 537.467 155.879 537.249 155.879C537.031 155.77 536.432 155.606 535.452 155.388C534.037 154.626 533.329 153.319 533.329 151.468ZM559.629 151.468C559.629 150.052 560.01 148.963 560.772 148.201C561.644 147.439 562.733 147.057 564.04 147.057C565.455 147.057 566.544 147.493 567.307 148.364C568.069 149.127 568.45 150.161 568.45 151.468C568.45 152.775 568.014 153.864 567.143 154.735C566.381 155.497 565.346 155.879 564.04 155.879C562.624 155.879 561.535 155.497 560.772 154.735C560.01 153.864 559.629 152.775 559.629 151.468ZM550.808 151.468C550.808 150.052 551.189 148.963 551.951 148.201C552.822 147.439 553.911 147.057 555.218 147.057C556.634 147.057 557.723 147.493 558.485 148.364C559.248 149.127 559.629 150.161 559.629 151.468C559.629 152.775 559.193 153.864 558.322 154.735C557.56 155.497 556.525 155.879 555.218 155.879C553.803 155.879 552.714 155.497 551.951 154.735C551.189 153.864 550.808 152.775 550.808 151.468ZM568.45 151.468C568.45 150.052 568.831 148.963 569.594 148.201C570.465 147.439 571.554 147.057 572.861 147.057C574.276 147.057 575.365 147.493 576.128 148.364C576.89 149.127 577.271 150.161 577.271 151.468C577.271 152.775 576.836 153.864 575.964 154.735C575.202 155.497 574.168 155.879 572.861 155.879C571.445 155.879 570.356 155.497 569.594 154.735C568.831 153.864 568.45 152.775 568.45 151.468ZM528.918 155.879C527.502 155.879 526.413 155.497 525.651 154.735C524.889 153.864 524.507 152.775 524.507 151.468C524.507 150.052 524.889 148.963 525.651 148.201C526.522 147.439 527.611 147.057 528.918 147.057C530.334 147.057 531.423 147.493 532.185 148.364C532.947 149.127 533.329 150.161 533.329 151.468C533.329 152.775 532.893 153.864 532.022 154.735C531.259 155.497 530.225 155.879 528.918 155.879ZM577.271 151.468C577.271 150.052 577.652 148.963 578.415 148.201C579.286 147.439 580.375 147.057 581.682 147.057C583.098 147.057 584.187 147.493 584.949 148.364C585.711 149.127 586.093 150.161 586.093 151.468C586.093 152.775 585.657 153.864 584.786 154.735C584.023 155.497 582.989 155.879 581.682 155.879C580.266 155.879 579.177 155.497 578.415 154.735C577.652 153.864 577.271 152.775 577.271 151.468ZM586.093 151.468C586.093 150.161 586.474 149.127 587.236 148.364C588.107 147.493 589.196 147.057 590.503 147.057C591.919 147.057 593.008 147.493 593.77 148.364C594.533 149.127 594.914 150.161 594.914 151.468C594.914 152.884 594.478 153.973 593.607 154.735C592.845 155.497 591.81 155.879 590.503 155.879C589.087 155.879 587.998 155.497 587.236 154.735C586.474 153.864 586.093 152.775 586.093 151.468ZM533.329 160.289C533.329 158.982 533.71 157.948 534.472 157.185C535.234 156.314 536.269 155.879 537.576 155.879C540.625 155.879 542.15 157.294 542.15 160.126V160.289C542.15 163.121 540.734 164.536 537.903 164.536C534.853 164.536 533.329 163.121 533.329 160.289ZM524.507 160.289C524.507 158.982 524.889 157.948 525.651 157.185C526.413 156.314 527.448 155.879 528.755 155.879C531.804 155.879 533.329 157.294 533.329 160.126V160.289C533.329 163.121 531.913 164.536 529.081 164.536C526.032 164.536 524.507 163.121 524.507 160.289ZM586.093 168.947C586.093 170.363 585.657 171.452 584.786 172.214C584.023 172.976 582.989 173.358 581.682 173.358C580.266 173.358 579.177 172.976 578.415 172.214C577.652 171.343 577.271 170.254 577.271 168.947C577.271 167.64 577.652 166.606 578.415 165.843C579.286 164.972 580.375 164.536 581.682 164.536C583.098 164.536 584.187 164.972 584.949 165.843C585.711 166.606 586.093 167.64 586.093 168.947ZM590.503 173.358C589.087 173.358 587.998 172.976 587.236 172.214C586.474 171.343 586.093 170.254 586.093 168.947C586.093 167.64 586.474 166.606 587.236 165.843C588.107 164.972 589.196 164.536 590.503 164.536C591.919 164.536 593.008 164.972 593.77 165.843C594.533 166.606 594.914 167.64 594.914 168.947C594.914 170.363 594.478 171.452 593.607 172.214C592.845 172.976 591.81 173.358 590.503 173.358ZM533.329 168.947C533.329 167.531 533.71 166.442 534.472 165.68C535.343 164.918 536.432 164.536 537.739 164.536C540.135 164.536 541.605 165.68 542.15 167.967C542.477 165.68 543.892 164.536 546.397 164.536C547.813 164.536 548.902 164.972 549.664 165.843C550.427 166.606 550.808 167.64 550.808 168.947C550.808 170.254 550.372 171.343 549.501 172.214C548.739 172.976 547.704 173.358 546.397 173.358C544.001 173.358 542.531 172.214 541.986 169.927C541.66 172.214 540.244 173.358 537.739 173.358C536.323 173.358 535.234 172.976 534.472 172.214C533.71 171.343 533.329 170.254 533.329 168.947ZM528.918 173.358C527.502 173.358 526.413 172.976 525.651 172.214C524.889 171.343 524.507 170.254 524.507 168.947C524.507 167.531 524.889 166.442 525.651 165.68C526.522 164.918 527.611 164.536 528.918 164.536C530.334 164.536 531.423 164.972 532.185 165.843C532.947 166.606 533.329 167.64 533.329 168.947C533.329 170.254 532.893 171.343 532.022 172.214C531.259 172.976 530.225 173.358 528.918 173.358ZM577.271 168.947C577.271 170.254 576.836 171.343 575.964 172.214C575.202 172.976 574.168 173.358 572.861 173.358C571.445 173.358 570.356 172.976 569.594 172.214C568.831 171.343 568.45 170.254 568.45 168.947C568.45 167.531 568.831 166.442 569.594 165.68C570.465 164.918 571.554 164.536 572.861 164.536C574.276 164.536 575.365 164.972 576.128 165.843C576.89 166.606 577.271 167.64 577.271 168.947ZM577.271 177.768C577.271 179.075 576.836 180.164 575.964 181.035C575.202 181.798 574.168 182.179 572.861 182.179C571.445 182.179 570.356 181.798 569.594 181.035C568.831 180.164 568.45 179.075 568.45 177.768C568.45 176.352 568.831 175.263 569.594 174.501C570.465 173.739 571.554 173.358 572.861 173.358C574.276 173.358 575.365 173.793 576.128 174.664C576.89 175.427 577.271 176.461 577.271 177.768ZM541.986 177.932C541.986 180.763 540.571 182.179 537.739 182.179C536.432 182.179 535.343 181.798 534.472 181.035C533.71 180.273 533.329 179.238 533.329 177.932C533.329 174.882 534.744 173.358 537.576 173.358C538.883 173.358 539.917 173.739 540.68 174.501C541.551 175.263 541.986 176.298 541.986 177.605V177.932ZM550.808 177.768C550.808 179.075 550.372 180.164 549.501 181.035C548.739 181.798 547.704 182.179 546.397 182.179C544.981 182.179 543.892 181.798 543.13 181.035C542.368 180.164 541.986 179.075 541.986 177.768C541.986 176.352 542.368 175.263 543.13 174.501C544.001 173.739 545.09 173.358 546.397 173.358C547.813 173.358 548.902 173.793 549.664 174.664C550.427 175.427 550.808 176.461 550.808 177.768ZM550.808 177.768C550.808 176.461 551.189 175.427 551.951 174.664C552.822 173.793 553.911 173.358 555.218 173.358C556.634 173.358 557.723 173.793 558.485 174.664C559.248 175.427 559.629 176.461 559.629 177.768C559.629 179.184 559.193 180.273 558.322 181.035C557.56 181.798 556.525 182.179 555.218 182.179C553.803 182.179 552.714 181.798 551.951 181.035C551.189 180.164 550.808 179.075 550.808 177.768ZM559.629 177.768C559.629 176.461 560.01 175.427 560.772 174.664C561.644 173.793 562.733 173.358 564.04 173.358C565.455 173.358 566.544 173.793 567.307 174.664C568.069 175.427 568.45 176.461 568.45 177.768C568.45 179.184 568.014 180.273 567.143 181.035C566.381 181.798 565.346 182.179 564.04 182.179C562.624 182.179 561.535 181.798 560.772 181.035C560.01 180.164 559.629 179.075 559.629 177.768ZM586.093 177.768C586.093 179.075 585.657 180.164 584.786 181.035C584.023 181.798 582.989 182.179 581.682 182.179C580.266 182.179 579.177 181.798 578.415 181.035C577.652 180.164 577.271 179.075 577.271 177.768C577.271 176.352 577.652 175.263 578.415 174.501C579.286 173.739 580.375 173.358 581.682 173.358C583.098 173.358 584.187 173.793 584.949 174.664C585.711 175.427 586.093 176.461 586.093 177.768ZM541.986 186.589C541.986 185.283 542.368 184.248 543.13 183.486C544.001 182.614 545.09 182.179 546.397 182.179C547.813 182.179 548.902 182.614 549.664 183.486C550.427 184.248 550.808 185.283 550.808 186.589C550.808 188.005 550.372 189.094 549.501 189.857C548.739 190.619 547.704 191 546.397 191C544.981 191 543.892 190.619 543.13 189.857C542.368 188.985 541.986 187.896 541.986 186.589ZM550.808 186.589C550.808 185.283 551.189 184.248 551.951 183.486C552.822 182.614 553.911 182.179 555.218 182.179C556.634 182.179 557.723 182.614 558.485 183.486C559.248 184.248 559.629 185.283 559.629 186.589C559.629 188.005 559.193 189.094 558.322 189.857C557.56 190.619 556.525 191 555.218 191C553.803 191 552.714 190.619 551.951 189.857C551.189 188.985 550.808 187.896 550.808 186.589ZM559.629 186.589C559.629 185.283 560.01 184.248 560.772 183.486C561.644 182.614 562.733 182.179 564.04 182.179C565.455 182.179 566.544 182.614 567.307 183.486C568.069 184.248 568.45 185.283 568.45 186.589C568.45 188.005 568.014 189.094 567.143 189.857C566.381 190.619 565.346 191 564.04 191C562.624 191 561.535 190.619 560.772 189.857C560.01 188.985 559.629 187.896 559.629 186.589ZM568.45 186.589C568.45 185.283 568.831 184.248 569.594 183.486C570.465 182.614 571.554 182.179 572.861 182.179C574.276 182.179 575.365 182.614 576.128 183.486C576.89 184.248 577.271 185.283 577.271 186.589C577.271 188.005 576.836 189.094 575.964 189.857C575.202 190.619 574.168 191 572.861 191C571.445 191 570.356 190.619 569.594 189.857C568.831 188.985 568.45 187.896 568.45 186.589ZM612.614 107.525C612.614 110.357 611.198 111.773 608.366 111.773C605.317 111.773 603.792 110.357 603.792 107.525C603.792 106.218 604.173 105.184 604.936 104.422C605.698 103.55 606.733 103.115 608.04 103.115C611.089 103.115 612.614 104.53 612.614 107.362V107.525ZM621.435 107.525C621.435 110.357 620.019 111.773 617.187 111.773C614.138 111.773 612.614 110.357 612.614 107.525C612.614 106.218 612.995 105.184 613.757 104.422C614.519 103.55 615.554 103.115 616.861 103.115C619.91 103.115 621.435 104.53 621.435 107.362V107.525ZM647.735 107.525C647.735 106.218 648.116 105.184 648.878 104.422C649.641 103.55 650.675 103.115 651.982 103.115C655.032 103.115 656.556 104.53 656.556 107.362V107.525C656.556 110.357 655.14 111.773 652.309 111.773C649.26 111.773 647.735 110.357 647.735 107.525ZM639.077 107.525C639.077 106.218 639.458 105.184 640.221 104.422C640.983 103.55 642.018 103.115 643.324 103.115C644.631 103.115 645.666 103.496 646.428 104.258C647.299 105.02 647.735 106.055 647.735 107.362V107.525C647.735 110.357 646.319 111.773 643.488 111.773C640.547 111.773 639.077 110.357 639.077 107.525ZM630.256 107.525C630.256 106.218 630.637 105.184 631.399 104.422C632.162 103.55 633.196 103.115 634.503 103.115C637.552 103.115 639.077 104.53 639.077 107.362V107.525C639.077 110.357 637.661 111.773 634.83 111.773C631.781 111.773 630.256 110.357 630.256 107.525ZM612.614 116.183C612.614 117.49 612.178 118.579 611.307 119.45C610.544 120.213 609.51 120.594 608.203 120.594C606.787 120.594 605.698 120.213 604.936 119.45C604.173 118.579 603.792 117.49 603.792 116.183C603.792 114.767 604.173 113.678 604.936 112.916C605.807 112.154 606.896 111.773 608.203 111.773C609.619 111.773 610.708 112.208 611.47 113.079C612.232 113.842 612.614 114.876 612.614 116.183ZM647.735 116.346C647.735 119.178 646.319 120.594 643.488 120.594C642.181 120.594 641.092 120.213 640.221 119.45C639.458 118.688 639.077 117.653 639.077 116.346C639.077 113.297 640.493 111.773 643.324 111.773C644.631 111.773 645.666 112.154 646.428 112.916C647.299 113.678 647.735 114.713 647.735 116.02V116.346ZM656.556 116.183C656.556 117.49 656.121 118.579 655.249 119.45C654.487 120.213 653.452 120.594 652.146 120.594C650.73 120.594 649.641 120.213 648.878 119.45C648.116 118.579 647.735 117.49 647.735 116.183C647.735 114.767 648.116 113.678 648.878 112.916C649.75 112.154 650.839 111.773 652.146 111.773C653.561 111.773 654.65 112.208 655.413 113.079C656.175 113.842 656.556 114.876 656.556 116.183ZM630.256 116.183C630.256 114.767 630.637 113.678 631.399 112.916C632.271 112.154 633.36 111.773 634.667 111.773C636.082 111.773 637.171 112.208 637.934 113.079C638.696 113.842 639.077 114.876 639.077 116.183C639.077 117.49 638.642 118.579 637.77 119.45C637.008 120.213 635.973 120.594 634.667 120.594C633.251 120.594 632.162 120.213 631.399 119.45C630.637 118.579 630.256 117.49 630.256 116.183ZM621.435 116.183C621.435 117.49 620.999 118.579 620.128 119.45C619.366 120.213 618.331 120.594 617.024 120.594C615.608 120.594 614.519 120.213 613.757 119.45C612.995 118.579 612.614 117.49 612.614 116.183C612.614 114.767 612.995 113.678 613.757 112.916C614.628 112.154 615.717 111.773 617.024 111.773C618.44 111.773 619.529 112.208 620.291 113.079C621.054 113.842 621.435 114.876 621.435 116.183ZM665.377 116.183C665.377 117.49 664.942 118.579 664.071 119.45C663.308 120.213 662.274 120.594 660.967 120.594C659.551 120.594 658.462 120.213 657.7 119.45C656.937 118.579 656.556 117.49 656.556 116.183C656.556 114.767 656.937 113.678 657.7 112.916C658.571 112.154 659.66 111.773 660.967 111.773C662.383 111.773 663.472 112.208 664.234 113.079C664.996 113.842 665.377 114.876 665.377 116.183ZM625.845 120.594C624.43 120.594 623.341 120.213 622.578 119.45C621.816 118.579 621.435 117.49 621.435 116.183C621.435 114.767 621.816 113.678 622.578 112.916C623.449 112.154 624.538 111.773 625.845 111.773C627.261 111.773 628.35 112.208 629.112 113.079C629.875 113.842 630.256 114.876 630.256 116.183C630.256 117.49 629.82 118.579 628.949 119.45C628.187 120.213 627.152 120.594 625.845 120.594ZM612.614 125.004C612.614 123.589 612.995 122.5 613.757 121.737C614.628 120.975 615.717 120.594 617.024 120.594C618.44 120.594 619.529 121.029 620.291 121.901C621.054 122.663 621.435 123.697 621.435 125.004C621.435 126.311 620.999 127.4 620.128 128.271C619.366 129.034 618.331 129.415 617.024 129.415C615.608 129.415 614.519 129.034 613.757 128.271C612.995 127.4 612.614 126.311 612.614 125.004ZM665.377 125.004C665.377 123.697 665.759 122.663 666.521 121.901C667.392 121.029 668.481 120.594 669.788 120.594C671.204 120.594 672.293 121.029 673.055 121.901C673.817 122.663 674.199 123.697 674.199 125.004C674.199 126.42 673.763 127.509 672.892 128.271C672.129 129.034 671.095 129.415 669.788 129.415C668.372 129.415 667.283 129.034 666.521 128.271C665.759 127.4 665.377 126.311 665.377 125.004ZM656.556 125.004C656.556 126.42 656.121 127.509 655.249 128.271C654.487 129.034 653.452 129.415 652.146 129.415C650.73 129.415 649.641 129.034 648.878 128.271C648.116 127.4 647.735 126.311 647.735 125.004C647.735 123.697 648.116 122.663 648.878 121.901C649.75 121.029 650.839 120.594 652.146 120.594C653.561 120.594 654.65 121.029 655.413 121.901C656.175 122.663 656.556 123.697 656.556 125.004ZM608.203 129.415C606.787 129.415 605.698 129.034 604.936 128.271C604.173 127.4 603.792 126.311 603.792 125.004C603.792 123.589 604.173 122.5 604.936 121.737C605.807 120.975 606.896 120.594 608.203 120.594C609.619 120.594 610.708 121.029 611.47 121.901C612.232 122.663 612.614 123.697 612.614 125.004C612.614 126.311 612.178 127.4 611.307 128.271C610.544 129.034 609.51 129.415 608.203 129.415ZM621.435 125.004C621.435 123.589 621.816 122.5 622.578 121.737C623.449 120.975 624.538 120.594 625.845 120.594C627.261 120.594 628.35 121.029 629.112 121.901C629.875 122.663 630.256 123.697 630.256 125.004C630.256 126.311 629.82 127.4 628.949 128.271C628.187 129.034 627.152 129.415 625.845 129.415C624.43 129.415 623.341 129.034 622.578 128.271C621.816 127.4 621.435 126.311 621.435 125.004ZM660.967 129.415C659.551 129.415 658.462 129.034 657.7 128.271C656.937 127.4 656.556 126.311 656.556 125.004C656.556 123.697 656.937 122.663 657.7 121.901C658.571 121.029 659.66 120.594 660.967 120.594C662.383 120.594 663.472 121.029 664.234 121.901C664.996 122.663 665.377 123.697 665.377 125.004C665.377 126.42 664.942 127.509 664.071 128.271C663.308 129.034 662.274 129.415 660.967 129.415ZM665.377 133.826C665.377 132.519 665.759 131.484 666.521 130.722C667.392 129.851 668.481 129.415 669.788 129.415C671.204 129.415 672.293 129.851 673.055 130.722C673.817 131.484 674.199 132.519 674.199 133.826C674.199 135.241 673.763 136.33 672.892 137.093C672.129 137.855 671.095 138.236 669.788 138.236C668.372 138.236 667.283 137.855 666.521 137.093C665.759 136.221 665.377 135.132 665.377 133.826ZM612.614 133.826C612.614 132.41 612.995 131.321 613.757 130.558C614.628 129.796 615.717 129.415 617.024 129.415C618.44 129.415 619.529 129.851 620.291 130.722C621.054 131.484 621.435 132.519 621.435 133.826C621.435 135.132 620.999 136.221 620.128 137.093C619.366 137.855 618.331 138.236 617.024 138.236C615.608 138.236 614.519 137.855 613.757 137.093C612.995 136.221 612.614 135.132 612.614 133.826ZM608.203 138.236C606.787 138.236 605.698 137.855 604.936 137.093C604.173 136.221 603.792 135.132 603.792 133.826C603.792 132.41 604.173 131.321 604.936 130.558C605.807 129.796 606.896 129.415 608.203 129.415C609.619 129.415 610.708 129.851 611.47 130.722C612.232 131.484 612.614 132.519 612.614 133.826C612.614 135.132 612.178 136.221 611.307 137.093C610.544 137.855 609.51 138.236 608.203 138.236ZM656.556 133.826C656.556 132.519 656.937 131.484 657.7 130.722C658.571 129.851 659.66 129.415 660.967 129.415C662.383 129.415 663.472 129.851 664.234 130.722C664.996 131.484 665.377 132.519 665.377 133.826C665.377 135.241 664.942 136.33 664.071 137.093C663.308 137.855 662.274 138.236 660.967 138.236C659.551 138.236 658.462 137.855 657.7 137.093C656.937 136.221 656.556 135.132 656.556 133.826ZM665.377 142.647C665.377 141.34 665.759 140.305 666.521 139.543C667.392 138.672 668.481 138.236 669.788 138.236C671.204 138.236 672.293 138.672 673.055 139.543C673.817 140.305 674.199 141.34 674.199 142.647C674.199 144.062 673.763 145.152 672.892 145.914C672.129 146.676 671.095 147.057 669.788 147.057C668.372 147.057 667.283 146.676 666.521 145.914C665.759 145.043 665.377 143.954 665.377 142.647ZM612.614 142.647C612.614 141.231 612.995 140.142 613.757 139.38C614.628 138.617 615.717 138.236 617.024 138.236C618.44 138.236 619.529 138.672 620.291 139.543C621.054 140.305 621.435 141.34 621.435 142.647C621.435 143.954 620.999 145.043 620.128 145.914C619.366 146.676 618.331 147.057 617.024 147.057C615.608 147.057 614.519 146.676 613.757 145.914C612.995 145.043 612.614 143.954 612.614 142.647ZM608.203 147.057C606.787 147.057 605.698 146.676 604.936 145.914C604.173 145.043 603.792 143.954 603.792 142.647C603.792 141.231 604.173 140.142 604.936 139.38C605.807 138.617 606.896 138.236 608.203 138.236C609.619 138.236 610.708 138.672 611.47 139.543C612.232 140.305 612.614 141.34 612.614 142.647C612.614 143.954 612.178 145.043 611.307 145.914C610.544 146.676 609.51 147.057 608.203 147.057ZM656.556 142.647C656.556 141.34 656.937 140.305 657.7 139.543C658.571 138.672 659.66 138.236 660.967 138.236C662.383 138.236 663.472 138.672 664.234 139.543C664.996 140.305 665.377 141.34 665.377 142.647C665.377 144.062 664.942 145.152 664.071 145.914C663.308 146.676 662.274 147.057 660.967 147.057C659.551 147.057 658.462 146.676 657.7 145.914C656.937 145.043 656.556 143.954 656.556 142.647ZM665.377 151.468C665.377 150.161 665.759 149.127 666.521 148.364C667.392 147.493 668.481 147.057 669.788 147.057C671.204 147.057 672.293 147.493 673.055 148.364C673.817 149.127 674.199 150.161 674.199 151.468C674.199 152.884 673.763 153.973 672.892 154.735C672.129 155.497 671.095 155.879 669.788 155.879C668.372 155.879 667.283 155.497 666.521 154.735C665.759 153.864 665.377 152.775 665.377 151.468ZM612.614 151.468C612.614 152.775 612.178 153.864 611.307 154.735C610.544 155.497 609.51 155.879 608.203 155.879C606.787 155.879 605.698 155.497 604.936 154.735C604.173 153.864 603.792 152.775 603.792 151.468C603.792 150.052 604.173 148.963 604.936 148.201C605.807 147.439 606.896 147.057 608.203 147.057C609.619 147.057 610.708 147.493 611.47 148.364C612.232 149.127 612.614 150.161 612.614 151.468ZM621.435 151.468C621.435 152.775 620.999 153.864 620.128 154.735C619.366 155.497 618.331 155.879 617.024 155.879C615.608 155.879 614.519 155.497 613.757 154.735C612.995 153.864 612.614 152.775 612.614 151.468C612.614 150.052 612.995 148.963 613.757 148.201C614.628 147.439 615.717 147.057 617.024 147.057C618.44 147.057 619.529 147.493 620.291 148.364C621.054 149.127 621.435 150.161 621.435 151.468ZM656.556 151.468C656.556 150.161 656.937 149.127 657.7 148.364C658.571 147.493 659.66 147.057 660.967 147.057C662.383 147.057 663.472 147.493 664.234 148.364C664.996 149.127 665.377 150.161 665.377 151.468C665.377 152.884 664.942 153.973 664.071 154.735C663.308 155.497 662.274 155.879 660.967 155.879C659.551 155.879 658.462 155.497 657.7 154.735C656.937 153.864 656.556 152.775 656.556 151.468ZM612.614 160.289C612.614 158.982 612.995 157.948 613.757 157.185C614.519 156.314 615.554 155.879 616.861 155.879C619.91 155.879 621.435 157.294 621.435 160.126V160.289C621.435 163.121 620.019 164.536 617.187 164.536C614.138 164.536 612.614 163.121 612.614 160.289ZM665.377 160.126C665.377 157.294 666.793 155.879 669.625 155.879C672.674 155.879 674.199 157.294 674.199 160.126C674.199 161.433 673.817 162.522 673.055 163.393C672.293 164.155 671.258 164.536 669.951 164.536C666.902 164.536 665.377 163.121 665.377 160.289V160.126ZM603.792 160.289C603.792 158.982 604.173 157.948 604.936 157.185C605.698 156.314 606.733 155.879 608.04 155.879C611.089 155.879 612.614 157.294 612.614 160.126V160.289C612.614 163.121 611.198 164.536 608.366 164.536C605.317 164.536 603.792 163.121 603.792 160.289ZM656.556 160.126C656.556 157.294 657.972 155.879 660.803 155.879C663.853 155.879 665.377 157.294 665.377 160.126C665.377 161.433 664.996 162.522 664.234 163.393C663.472 164.155 662.437 164.536 661.13 164.536C658.081 164.536 656.556 163.121 656.556 160.289V160.126ZM612.614 168.947C612.614 170.254 612.178 171.343 611.307 172.214C610.544 172.976 609.51 173.358 608.203 173.358C606.787 173.358 605.698 172.976 604.936 172.214C604.173 171.343 603.792 170.254 603.792 168.947C603.792 167.531 604.173 166.442 604.936 165.68C605.807 164.918 606.896 164.536 608.203 164.536C609.619 164.536 610.708 164.972 611.47 165.843C612.232 166.606 612.614 167.64 612.614 168.947ZM665.377 168.947C665.377 167.64 665.759 166.606 666.521 165.843C667.392 164.972 668.481 164.536 669.788 164.536C671.204 164.536 672.293 164.972 673.055 165.843C673.817 166.606 674.199 167.64 674.199 168.947C674.199 170.363 673.763 171.452 672.892 172.214C672.129 172.976 671.095 173.358 669.788 173.358C668.372 173.358 667.283 172.976 666.521 172.214C665.759 171.343 665.377 170.254 665.377 168.947ZM621.435 168.947C621.435 170.254 620.999 171.343 620.128 172.214C619.366 172.976 618.331 173.358 617.024 173.358C615.608 173.358 614.519 172.976 613.757 172.214C612.995 171.343 612.614 170.254 612.614 168.947C612.614 167.531 612.995 166.442 613.757 165.68C614.628 164.918 615.717 164.536 617.024 164.536C618.44 164.536 619.529 164.972 620.291 165.843C621.054 166.606 621.435 167.64 621.435 168.947ZM656.556 168.947C656.556 167.64 656.937 166.606 657.7 165.843C658.571 164.972 659.66 164.536 660.967 164.536C662.383 164.536 663.472 164.972 664.234 165.843C664.996 166.606 665.377 167.64 665.377 168.947C665.377 170.363 664.942 171.452 664.071 172.214C663.308 172.976 662.274 173.358 660.967 173.358C659.551 173.358 658.462 172.976 657.7 172.214C656.937 171.343 656.556 170.254 656.556 168.947ZM612.614 177.768C612.614 179.075 612.178 180.164 611.307 181.035C610.544 181.798 609.51 182.179 608.203 182.179C606.787 182.179 605.698 181.798 604.936 181.035C604.173 180.164 603.792 179.075 603.792 177.768C603.792 176.352 604.173 175.263 604.936 174.501C605.807 173.739 606.896 173.358 608.203 173.358C609.619 173.358 610.708 173.793 611.47 174.664C612.232 175.427 612.614 176.461 612.614 177.768ZM665.377 177.768C665.377 176.461 665.759 175.427 666.521 174.664C667.392 173.793 668.481 173.358 669.788 173.358C671.204 173.358 672.293 173.793 673.055 174.664C673.817 175.427 674.199 176.461 674.199 177.768C674.199 179.184 673.763 180.273 672.892 181.035C672.129 181.798 671.095 182.179 669.788 182.179C668.372 182.179 667.283 181.798 666.521 181.035C665.759 180.164 665.377 179.075 665.377 177.768ZM621.435 177.768C621.435 179.075 620.999 180.164 620.128 181.035C619.366 181.798 618.331 182.179 617.024 182.179C615.608 182.179 614.519 181.798 613.757 181.035C612.995 180.164 612.614 179.075 612.614 177.768C612.614 176.352 612.995 175.263 613.757 174.501C614.628 173.739 615.717 173.358 617.024 173.358C618.44 173.358 619.529 173.793 620.291 174.664C621.054 175.427 621.435 176.461 621.435 177.768ZM656.556 177.768C656.556 176.461 656.937 175.427 657.7 174.664C658.571 173.793 659.66 173.358 660.967 173.358C662.383 173.358 663.472 173.793 664.234 174.664C664.996 175.427 665.377 176.461 665.377 177.768C665.377 179.184 664.942 180.273 664.071 181.035C663.308 181.798 662.274 182.179 660.967 182.179C659.551 182.179 658.462 181.798 657.7 181.035C656.937 180.164 656.556 179.075 656.556 177.768ZM612.614 186.589C612.614 185.283 612.995 184.248 613.757 183.486C614.628 182.614 615.717 182.179 617.024 182.179C618.44 182.179 619.529 182.614 620.291 183.486C621.054 184.248 621.435 185.283 621.435 186.589C621.435 188.005 620.999 189.094 620.128 189.857C619.366 190.619 618.331 191 617.024 191C615.608 191 614.519 190.619 613.757 189.857C612.995 188.985 612.614 187.896 612.614 186.589ZM665.377 186.589C665.377 188.005 664.942 189.094 664.071 189.857C663.308 190.619 662.274 191 660.967 191C659.551 191 658.462 190.619 657.7 189.857C656.937 188.985 656.556 187.896 656.556 186.589C656.556 185.283 656.937 184.248 657.7 183.486C658.571 182.614 659.66 182.179 660.967 182.179C662.383 182.179 663.472 182.614 664.234 183.486C664.996 184.248 665.377 185.283 665.377 186.589ZM603.792 186.589C603.792 185.283 604.173 184.248 604.936 183.486C605.807 182.614 606.896 182.179 608.203 182.179C609.619 182.179 610.708 182.614 611.47 183.486C612.232 184.248 612.614 185.283 612.614 186.589C612.614 188.005 612.178 189.094 611.307 189.857C610.544 190.619 609.51 191 608.203 191C606.787 191 605.698 190.619 604.936 189.857C604.173 188.985 603.792 187.896 603.792 186.589ZM669.788 191C668.372 191 667.283 190.619 666.521 189.857C665.759 188.985 665.377 187.896 665.377 186.589C665.377 185.283 665.759 184.248 666.521 183.486C667.392 182.614 668.481 182.179 669.788 182.179C671.204 182.179 672.293 182.614 673.055 183.486C673.817 184.248 674.199 185.283 674.199 186.589C674.199 188.005 673.763 189.094 672.892 189.857C672.129 190.619 671.095 191 669.788 191Z" fill="white"/>
</g>
<g filter="url(#filter2_d_81_36)">
<path d="M119.176 129.415V164.536H123.423C124.73 164.536 125.765 164.972 126.527 165.843C127.398 166.606 127.834 167.64 127.834 168.947V173.358H154.297V168.947C154.297 167.64 154.679 166.606 155.441 165.843C156.312 164.972 157.401 164.536 158.708 164.536H163.119V155.879H180.598V168.947C180.598 170.254 180.162 171.343 179.291 172.214C178.529 172.976 177.494 173.358 176.187 173.358H171.94V177.768C171.94 179.075 171.504 180.164 170.633 181.035C169.871 181.798 168.836 182.179 167.529 182.179H163.119V186.589C163.119 187.896 162.683 188.985 161.812 189.857C161.049 190.619 160.015 191 158.708 191H123.423C122.116 191 121.027 190.619 120.156 189.857C119.394 188.985 119.013 187.896 119.013 186.589V182.179H114.765C113.459 182.179 112.369 181.798 111.498 181.035C110.736 180.164 110.355 179.075 110.355 177.768V164.536H105.944C104.637 164.536 103.548 164.155 102.677 163.393C101.915 162.522 101.534 161.433 101.534 160.126V133.826C101.534 132.519 101.915 131.484 102.677 130.722C103.548 129.851 104.637 129.415 105.944 129.415H110.355V116.183C110.355 114.876 110.736 113.842 111.498 113.079C112.369 112.208 113.459 111.773 114.765 111.773H119.013V107.525C119.013 106.218 119.394 105.184 120.156 104.422C121.027 103.55 122.116 103.115 123.423 103.115H158.708C160.015 103.115 161.049 103.55 161.812 104.422C162.683 105.184 163.119 106.218 163.119 107.525V111.773H167.529C168.836 111.773 169.871 112.208 170.633 113.079C171.504 113.842 171.94 114.876 171.94 116.183V120.594H176.187C177.494 120.594 178.529 121.029 179.291 121.901C180.162 122.663 180.598 123.697 180.598 125.004V138.236H163.119V129.415H158.708C157.401 129.415 156.312 129.034 155.441 128.271C154.679 127.4 154.297 126.311 154.297 125.004V120.594H127.834V125.004C127.834 126.311 127.398 127.4 126.527 128.271C125.765 129.034 124.73 129.415 123.423 129.415H119.176ZM242.197 138.236V129.252H237.786C236.479 129.252 235.39 128.87 234.519 128.108C233.757 127.237 233.376 126.148 233.376 124.841V120.43H215.733V124.841C215.733 126.148 215.298 127.237 214.426 128.108C213.664 128.87 212.629 129.252 211.323 129.252H207.075V138.236H242.197ZM189.433 125.004C189.433 123.697 189.814 122.663 190.576 121.901C191.448 121.029 192.537 120.594 193.844 120.594H198.254V116.183C198.254 114.876 198.635 113.842 199.398 113.079C200.269 112.208 201.358 111.773 202.665 111.773H206.912V107.525C206.912 106.218 207.293 105.184 208.055 104.422C208.927 103.55 210.016 103.115 211.323 103.115H237.786C239.093 103.115 240.128 103.55 240.89 104.422C241.761 105.184 242.197 106.218 242.197 107.525V111.773H246.607C247.914 111.773 248.949 112.208 249.711 113.079C250.582 113.842 251.018 114.876 251.018 116.183V120.594H255.429C256.735 120.594 257.77 121.029 258.532 121.901C259.404 122.663 259.839 123.697 259.839 125.004V142.647C259.839 143.954 259.404 145.043 258.532 145.914C257.77 146.676 256.735 147.057 255.429 147.057H251.018V151.468C251.018 152.775 250.582 153.864 249.711 154.735C248.949 155.497 247.914 155.879 246.607 155.879H207.075V164.536H211.323C212.629 164.536 213.664 164.972 214.426 165.843C215.298 166.606 215.733 167.64 215.733 168.947V173.358H233.376V164.536H259.839V168.947C259.839 170.254 259.404 171.343 258.532 172.214C257.77 172.976 256.735 173.358 255.429 173.358H251.018V177.768C251.018 179.075 250.582 180.164 249.711 181.035C248.949 181.798 247.914 182.179 246.607 182.179H242.197V186.589C242.197 187.896 241.761 188.985 240.89 189.857C240.128 190.619 239.093 191 237.786 191H211.323C210.016 191 208.927 190.619 208.055 189.857C207.293 188.985 206.912 187.896 206.912 186.589V182.179H202.665C201.358 182.179 200.269 181.798 199.398 181.035C198.635 180.164 198.254 179.075 198.254 177.768V173.358H193.844C192.537 173.358 191.448 172.976 190.576 172.214C189.814 171.343 189.433 170.254 189.433 168.947V151.468C189.433 150.161 189.814 149.127 190.576 148.364C191.448 147.493 192.537 147.057 193.844 147.057H198.254V138.236H193.844C192.537 138.236 191.448 137.855 190.576 137.093C189.814 136.221 189.433 135.132 189.433 133.826V125.004ZM273.128 120.594C271.822 120.594 270.733 120.213 269.861 119.45C269.099 118.579 268.718 117.49 268.718 116.183V103.115H286.36V111.773H295.181V107.525C295.181 106.218 295.563 105.184 296.325 104.422C297.196 103.55 298.285 103.115 299.592 103.115H308.413C309.72 103.115 310.755 103.55 311.517 104.422C312.388 105.184 312.824 106.218 312.824 107.525V111.773H317.071C318.378 111.773 319.413 112.208 320.175 113.079C321.046 113.842 321.482 114.876 321.482 116.183V129.252H304.166V120.43H295.181V124.841C295.181 126.148 294.746 127.237 293.875 128.108C293.112 128.87 292.078 129.252 290.771 129.252H286.36V191H268.718V133.826C268.718 132.519 269.099 131.484 269.861 130.722C270.733 129.851 271.822 129.415 273.128 129.415H277.539V120.594H273.128ZM347.938 129.415H330.295V111.773H339.116V107.525C339.116 106.218 339.498 105.184 340.26 104.422C341.131 103.55 342.22 103.115 343.527 103.115H347.938V85.4723H365.58V98.7041C365.58 100.011 365.144 101.1 364.273 101.971C363.511 102.734 362.476 103.115 361.169 103.115H356.759V107.362C356.759 108.669 356.323 109.758 355.452 110.629C354.69 111.391 353.655 111.773 352.348 111.773H347.938V120.594H356.759V116.183C356.759 114.876 357.14 113.842 357.902 113.079C358.774 112.208 359.863 111.773 361.169 111.773H392.044V129.415H365.58V173.358H374.401V164.536H392.044V177.768C392.044 179.075 391.608 180.164 390.737 181.035C389.974 181.798 388.94 182.179 387.633 182.179H383.222V186.589C383.222 187.896 382.787 188.985 381.916 189.857C381.153 190.619 380.119 191 378.812 191H361.169C359.863 191 358.774 190.619 357.902 189.857C357.14 188.985 356.759 187.896 356.759 186.589V182.179H352.348C351.041 182.179 349.952 181.798 349.081 181.035C348.319 180.164 347.938 179.075 347.938 177.768V129.415ZM400.806 76.6511H418.449V94.2935H400.806V76.6511ZM400.806 102.951H418.449V191H400.806V102.951Z" fill="#16C79E"/>
</g>
<defs>
<filter id="filter0_dd_81_36" x="0" y="0" width="776" height="300" filterUnits="userSpaceOnUse" color-interpolation-filters="sRGB">
<feFlood flood-opacity="0" result="BackgroundImageFix"/>
<feColorMatrix in="SourceAlpha" type="matrix" values="0 0 0 0 0 0 0 0 0 0 0 0 0 0 0 0 0 0 127 0" result="hardAlpha"/>
<feMorphology radius="4" operator="dilate" in="SourceAlpha" result="effect1_dropShadow_81_36"/>
<feOffset dx="25" dy="25"/>
<feGaussianBlur stdDeviation="0.5"/>
<feComposite in2="hardAlpha" operator="out"/>
<feColorMatrix type="matrix" values="0 0 0 0 1 0 0 0 0 0.941176 0 0 0 0 0.321569 0 0 0 1 0"/>
<feBlend mode="normal" in2="BackgroundImageFix" result="effect1_dropShadow_81_36"/>
<feColorMatrix in="SourceAlpha" type="matrix" values="0 0 0 0 0 0 0 0 0 0 0 0 0 0 0 0 0 0 127 0" result="hardAlpha"/>
<feMorphology radius="4" operator="dilate" in="SourceAlpha" result="effect2_dropShadow_81_36"/>
<feOffset dx="-25" dy="-25"/>
<feGaussianBlur stdDeviation="0.5"/>
<feComposite in2="hardAlpha" operator="out"/>
<feColorMatrix type="matrix" values="0 0 0 0 0.913725 0 0 0 0 0.286275 0 0 0 0 0.239216 0 0 0 1 0"/>
<feBlend mode="normal" in2="effect1_dropShadow_81_36" result="effect2_dropShadow_81_36"/>
<feBlend mode="normal" in="SourceGraphic" in2="effect2_dropShadow_81_36" result="shape"/>
</filter>
<filter id="filter1_d_81_36" x="444.744" y="103.115" width="237.455" height="131.007" filterUnits="userSpaceOnUse" color-interpolation-filters="sRGB">
<feFlood flood-opacity="0" result="BackgroundImageFix"/>
<feColorMatrix in="SourceAlpha" type="matrix" values="0 0 0 0 0 0 0 0 0 0 0 0 0 0 0 0 0 0 127 0" result="hardAlpha"/>
<feOffset dx="8" dy="8"/>
<feComposite in2="hardAlpha" operator="out"/>
<feColorMatrix type="matrix" values="0 0 0 0 0.14902 0 0 0 0 0.607843 0 0 0 0 0.305882 0 0 0 1 0"/>
<feBlend mode="normal" in2="BackgroundImageFix" result="effect1_dropShadow_81_36"/>
<feBlend mode="normal" in="SourceGraphic" in2="effect1_dropShadow_81_36" result="shape"/>
</filter>
<filter id="filter2_d_81_36" x="101.534" y="76.6509" width="324.915" height="122.349" filterUnits="userSpaceOnUse" color-interpolation-filters="sRGB">
<feFlood flood-opacity="0" result="BackgroundImageFix"/>
<feColorMatrix in="SourceAlpha" type="matrix" values="0 0 0 0 0 0 0 0 0 0 0 0 0 0 0 0 0 0 127 0" result="hardAlpha"/>
<feOffset dx="8" dy="8"/>
<feComposite in2="hardAlpha" operator="out"/>
<feColorMatrix type="matrix" values="0 0 0 0 1 0 0 0 0 1 0 0 0 0 1 0 0 0 1 0"/>
<feBlend mode="normal" in2="BackgroundImageFix" result="effect1_dropShadow_81_36"/>
<feBlend mode="normal" in="SourceGraphic" in2="effect1_dropShadow_81_36" result="shape"/>
</filter>
</defs>
</svg>
