<svg width="210" height="143" viewBox="0 0 210 143" fill="none" xmlns="http://www.w3.org/2000/svg">
<path d="M135.23 5.06167C135.23 3.75482 135.611 2.72024 136.374 1.95792C137.245 1.08668 138.334 0.651068 139.641 0.651068C142.037 0.651068 143.507 1.79456 144.052 4.08154C144.378 1.79456 145.794 0.651068 148.299 0.651068C149.715 0.651068 150.804 1.08668 151.566 1.95792C152.328 2.72024 152.709 3.75482 152.709 5.06167C152.709 6.47742 152.274 7.56646 151.403 8.32878C150.64 9.09111 149.606 9.47227 148.299 9.47227C145.903 9.47227 144.433 8.32878 143.888 6.0418C143.561 8.32878 142.146 9.47227 139.641 9.47227C138.225 9.47227 137.136 9.09111 136.374 8.32878C135.611 7.45755 135.23 6.36852 135.23 5.06167ZM135.23 5.06167C135.23 6.36852 134.795 7.45755 133.923 8.32878C133.161 9.09111 132.127 9.47227 130.82 9.47227C129.404 9.47227 128.315 9.09111 127.553 8.32878C126.79 7.45755 126.409 6.36852 126.409 5.06167C126.409 3.64592 126.79 2.55688 127.553 1.79456C128.424 1.03223 129.513 0.651068 130.82 0.651068C132.235 0.651068 133.324 1.08668 134.087 1.95792C134.849 2.72024 135.23 3.75482 135.23 5.06167ZM152.709 4.89832C152.709 2.06682 154.125 0.651068 156.957 0.651068C158.263 0.651068 159.298 1.03223 160.06 1.79456C160.932 2.55688 161.367 3.59147 161.367 4.89832C161.367 7.94762 159.951 9.47227 157.12 9.47227C155.813 9.47227 154.724 9.09111 153.853 8.32878C153.091 7.56646 152.709 6.53187 152.709 5.22502V4.89832ZM161.367 5.06167C161.367 3.75482 161.748 2.72024 162.511 1.95792C163.382 1.08668 164.471 0.651068 165.778 0.651068C167.194 0.651068 168.283 1.08668 169.045 1.95792C169.807 2.72024 170.188 3.75482 170.188 5.06167C170.188 6.47742 169.753 7.56646 168.882 8.32878C168.119 9.09111 167.085 9.47227 165.778 9.47227C164.362 9.47227 163.273 9.09111 162.511 8.32878C161.748 7.45755 161.367 6.36852 161.367 5.06167ZM170.188 5.06167C170.188 3.75482 170.57 2.72024 171.332 1.95792C172.203 1.08668 173.292 0.651068 174.599 0.651068C176.015 0.651068 177.104 1.08668 177.866 1.95792C178.628 2.72024 179.01 3.75482 179.01 5.06167C179.01 6.47742 178.574 7.56646 177.703 8.32878C176.94 9.09111 175.906 9.47227 174.599 9.47227C173.183 9.47227 172.094 9.09111 171.332 8.32878C170.57 7.45755 170.188 6.36852 170.188 5.06167ZM187.831 5.06167C187.831 6.36852 187.395 7.45755 186.524 8.32878C185.762 9.09111 184.727 9.47227 183.42 9.47227C182.004 9.47227 180.915 9.09111 180.153 8.32878C179.391 7.45755 179.01 6.36852 179.01 5.06167C179.01 3.64592 179.391 2.55688 180.153 1.79456C181.024 1.03223 182.113 0.651068 183.42 0.651068C184.836 0.651068 185.925 1.08668 186.687 1.95792C187.45 2.72024 187.831 3.75482 187.831 5.06167ZM135.23 13.8829C135.23 12.576 135.611 11.5414 136.374 10.7791C137.245 9.90789 138.334 9.47227 139.641 9.47227C142.037 9.47227 143.507 10.6158 144.052 12.9027C144.378 10.6158 145.794 9.47227 148.299 9.47227C149.715 9.47227 150.804 9.90789 151.566 10.7791C152.328 11.5414 152.709 12.576 152.709 13.8829C152.709 15.2986 152.274 16.3877 151.403 17.15C150.64 17.9123 149.606 18.2935 148.299 18.2935C145.903 18.2935 144.433 17.15 143.888 14.863C143.561 17.15 142.146 18.2935 139.641 18.2935C138.225 18.2935 137.136 17.9123 136.374 17.15C135.611 16.2788 135.23 15.1897 135.23 13.8829ZM126.409 13.8829C126.409 15.1897 125.973 16.2788 125.102 17.15C124.34 17.9123 123.305 18.2935 121.999 18.2935C120.583 18.2935 119.494 17.9123 118.731 17.15C117.969 16.2788 117.588 15.1897 117.588 13.8829C117.588 12.4671 117.969 11.3781 118.731 10.6158C119.603 9.85344 120.692 9.47227 121.999 9.47227C123.414 9.47227 124.503 9.90789 125.266 10.7791C126.028 11.5414 126.409 12.576 126.409 13.8829ZM170.188 13.8829C170.188 12.576 170.57 11.5414 171.332 10.7791C172.203 9.90789 173.292 9.47227 174.599 9.47227C176.015 9.47227 177.104 9.90789 177.866 10.7791C178.628 11.5414 179.01 12.576 179.01 13.8829C179.01 15.2986 178.574 16.3877 177.703 17.15C176.94 17.9123 175.906 18.2935 174.599 18.2935C173.183 18.2935 172.094 17.9123 171.332 17.15C170.57 16.2788 170.188 15.1897 170.188 13.8829ZM161.367 13.8829C161.367 12.576 161.748 11.5414 162.511 10.7791C163.382 9.90789 164.471 9.47227 165.778 9.47227C167.194 9.47227 168.283 9.90789 169.045 10.7791C169.807 11.5414 170.188 12.576 170.188 13.8829C170.188 15.2986 169.753 16.3877 168.882 17.15C168.119 17.9123 167.085 18.2935 165.778 18.2935C164.362 18.2935 163.273 17.9123 162.511 17.15C161.748 16.2788 161.367 15.1897 161.367 13.8829ZM152.709 13.7195C152.709 10.888 154.125 9.47227 156.957 9.47227C158.263 9.47227 159.298 9.85344 160.06 10.6158C160.932 11.3781 161.367 12.4127 161.367 13.7195C161.367 16.7688 159.951 18.2935 157.12 18.2935C155.813 18.2935 154.724 17.9123 153.853 17.15C153.091 16.3877 152.709 15.3531 152.709 14.0462V13.7195ZM187.831 13.8829C187.831 15.1897 187.395 16.2788 186.524 17.15C185.762 17.9123 184.727 18.2935 183.42 18.2935C182.004 18.2935 180.915 17.9123 180.153 17.15C179.391 16.2788 179.01 15.1897 179.01 13.8829C179.01 12.4671 179.391 11.3781 180.153 10.6158C181.024 9.85344 182.113 9.47227 183.42 9.47227C184.836 9.47227 185.925 9.90789 186.687 10.7791C187.45 11.5414 187.831 12.576 187.831 13.8829ZM135.23 13.8829C135.23 15.1897 134.795 16.2788 133.923 17.15C133.161 17.9123 132.127 18.2935 130.82 18.2935C129.404 18.2935 128.315 17.9123 127.553 17.15C126.79 16.2788 126.409 15.1897 126.409 13.8829C126.409 12.4671 126.79 11.3781 127.553 10.6158C128.424 9.85344 129.513 9.47227 130.82 9.47227C132.235 9.47227 133.324 9.90789 134.087 10.7791C134.849 11.5414 135.23 12.576 135.23 13.8829ZM196.489 14.0462C196.489 16.8777 195.073 18.2935 192.241 18.2935C190.935 18.2935 189.846 17.9123 188.974 17.15C188.212 16.3877 187.831 15.3531 187.831 14.0462C187.831 10.9969 189.247 9.47227 192.078 9.47227C193.385 9.47227 194.419 9.85344 195.182 10.6158C196.053 11.3781 196.489 12.4127 196.489 13.7195V14.0462ZM117.588 22.7041C117.588 25.5356 116.172 26.9513 113.341 26.9513C110.291 26.9513 108.767 25.5356 108.767 22.7041C108.767 21.3972 109.148 20.3626 109.91 19.6003C110.673 18.7291 111.707 18.2935 113.014 18.2935C116.063 18.2935 117.588 19.7092 117.588 22.5407V22.7041ZM126.409 22.7041C126.409 21.2883 126.79 20.1993 127.553 19.437C128.424 18.6746 129.513 18.2935 130.82 18.2935C132.235 18.2935 133.324 18.7291 134.087 19.6003C134.849 20.3626 135.23 21.3972 135.23 22.7041C135.23 24.0109 134.795 25.1 133.923 25.9712C133.161 26.7335 132.127 27.1147 130.82 27.1147C129.404 27.1147 128.315 26.7335 127.553 25.9712C126.79 25.1 126.409 24.0109 126.409 22.7041ZM187.831 22.5407C187.831 19.7092 189.247 18.2935 192.078 18.2935C194.692 18.2935 196.162 19.3825 196.489 21.5606C197.033 19.3825 198.449 18.2935 200.736 18.2935C203.785 18.2935 205.31 19.7092 205.31 22.5407C205.31 23.8476 204.929 24.9366 204.166 25.8078C203.404 26.5702 202.369 26.9513 201.063 26.9513C198.558 26.9513 197.033 25.8078 196.489 23.5209C196.162 25.8078 194.801 26.9513 192.405 26.9513C189.355 26.9513 187.831 25.5356 187.831 22.7041V22.8674C187.831 25.6989 186.415 27.1147 183.584 27.1147C182.277 27.1147 181.188 26.7335 180.316 25.9712C179.554 25.2089 179.173 24.1743 179.173 22.8674C179.173 19.8181 180.589 18.2935 183.42 18.2935C184.727 18.2935 185.762 18.6746 186.524 19.437C187.395 20.1993 187.831 21.2339 187.831 22.5407ZM117.588 22.7041C117.588 21.3972 117.969 20.3626 118.731 19.6003C119.494 18.7291 120.528 18.2935 121.835 18.2935C124.884 18.2935 126.409 19.7092 126.409 22.5407V22.7041C126.409 25.5356 124.993 26.9513 122.162 26.9513C119.113 26.9513 117.588 25.5356 117.588 22.7041ZM117.588 31.3619C117.588 32.6688 117.152 33.7578 116.281 34.629C115.519 35.3914 114.484 35.7725 113.177 35.7725C111.762 35.7725 110.673 35.3914 109.91 34.629C109.148 33.7578 108.767 32.6688 108.767 31.3619C108.767 29.9462 109.148 28.8571 109.91 28.0948C110.781 27.3325 111.87 26.9513 113.177 26.9513C114.593 26.9513 115.682 27.3869 116.444 28.2582C117.207 29.0205 117.588 30.0551 117.588 31.3619ZM187.831 31.3619C187.831 30.0551 188.212 29.0205 188.974 28.2582C189.846 27.3869 190.935 26.9513 192.241 26.9513C194.637 26.9513 196.108 28.0948 196.652 30.3818C196.979 28.0948 198.394 26.9513 200.899 26.9513C202.315 26.9513 203.404 27.3869 204.166 28.2582C204.929 29.0205 205.31 30.0551 205.31 31.3619C205.31 32.7777 204.874 33.8667 204.003 34.629C203.241 35.3914 202.206 35.7725 200.899 35.7725C198.503 35.7725 197.033 34.629 196.489 32.3421C196.162 34.629 194.746 35.7725 192.241 35.7725C190.826 35.7725 189.737 35.3914 188.974 34.629C188.212 33.7578 187.831 32.6688 187.831 31.3619ZM126.409 31.3619C126.409 32.6688 125.973 33.7578 125.102 34.629C124.34 35.3914 123.305 35.7725 121.999 35.7725C120.583 35.7725 119.494 35.3914 118.731 34.629C117.969 33.7578 117.588 32.6688 117.588 31.3619C117.588 29.9462 117.969 28.8571 118.731 28.0948C119.603 27.3325 120.692 26.9513 121.999 26.9513C123.414 26.9513 124.503 27.3869 125.266 28.2582C126.028 29.0205 126.409 30.0551 126.409 31.3619ZM117.588 40.1831C117.588 41.49 117.152 42.579 116.281 43.4502C115.519 44.2126 114.484 44.5937 113.177 44.5937C111.762 44.5937 110.673 44.2126 109.91 43.4502C109.148 42.579 108.767 41.49 108.767 40.1831C108.767 38.7674 109.148 37.6783 109.91 36.916C110.781 36.1537 111.87 35.7725 113.177 35.7725C114.593 35.7725 115.682 36.2081 116.444 37.0794C117.207 37.8417 117.588 38.8763 117.588 40.1831ZM187.831 40.1831C187.831 38.8763 188.212 37.8417 188.974 37.0794C189.846 36.2081 190.935 35.7725 192.241 35.7725C194.637 35.7725 196.108 36.916 196.652 39.203C196.979 36.916 198.394 35.7725 200.899 35.7725C202.315 35.7725 203.404 36.2081 204.166 37.0794C204.929 37.8417 205.31 38.8763 205.31 40.1831C205.31 41.5989 204.874 42.6879 204.003 43.4502C203.241 44.2126 202.206 44.5937 200.899 44.5937C198.503 44.5937 197.033 43.4502 196.489 41.1633C196.162 43.4502 194.746 44.5937 192.241 44.5937C190.826 44.5937 189.737 44.2126 188.974 43.4502C188.212 42.579 187.831 41.49 187.831 40.1831ZM126.409 40.1831C126.409 41.49 125.973 42.579 125.102 43.4502C124.34 44.2126 123.305 44.5937 121.999 44.5937C120.583 44.5937 119.494 44.2126 118.731 43.4502C117.969 42.579 117.588 41.49 117.588 40.1831C117.588 38.7674 117.969 37.6783 118.731 36.916C119.603 36.1537 120.692 35.7725 121.999 35.7725C123.414 35.7725 124.503 36.2081 125.266 37.0794C126.028 37.8417 126.409 38.8763 126.409 40.1831ZM117.588 49.0043C117.588 50.3112 117.152 51.4002 116.281 52.2714C115.519 53.0338 114.484 53.4149 113.177 53.4149C111.762 53.4149 110.673 53.0338 109.91 52.2714C109.148 51.4002 108.767 50.3112 108.767 49.0043C108.767 47.5886 109.148 46.4995 109.91 45.7372C110.781 44.9749 111.87 44.5937 113.177 44.5937C114.593 44.5937 115.682 45.0293 116.444 45.9006C117.207 46.6629 117.588 47.6975 117.588 49.0043ZM126.409 49.0043C126.409 50.3112 125.973 51.4002 125.102 52.2714C124.34 53.0338 123.305 53.4149 121.999 53.4149C120.583 53.4149 119.494 53.0338 118.731 52.2714C117.969 51.4002 117.588 50.3112 117.588 49.0043C117.588 47.5886 117.969 46.4995 118.731 45.7372C119.603 44.9749 120.692 44.5937 121.999 44.5937C123.414 44.5937 124.503 45.0293 125.266 45.9006C126.028 46.6629 126.409 47.6975 126.409 49.0043ZM196.489 57.9889C196.489 60.8204 195.073 62.2361 192.241 62.2361C190.935 62.2361 189.846 61.855 188.974 61.0926C188.212 60.3303 187.831 59.2957 187.831 57.9889C187.831 54.9396 189.247 53.4149 192.078 53.4149C193.385 53.4149 194.419 53.7961 195.182 54.5584C196.053 55.3208 196.489 56.3553 196.489 57.6622V57.9889ZM179.01 57.8255C179.01 56.4098 179.391 55.3208 180.153 54.5584C181.024 53.7961 182.113 53.4149 183.42 53.4149C184.836 53.4149 185.925 53.8506 186.687 54.7218C187.45 55.4841 187.831 56.5187 187.831 57.8255C187.831 59.1324 187.395 60.2214 186.524 61.0926C185.762 61.855 184.727 62.2361 183.42 62.2361C182.004 62.2361 180.915 61.855 180.153 61.0926C179.391 60.2214 179.01 59.1324 179.01 57.8255ZM196.489 57.8255C196.489 56.5187 196.87 55.4841 197.632 54.7218C198.503 53.8506 199.592 53.4149 200.899 53.4149C202.315 53.4149 203.404 53.8506 204.166 54.7218C204.929 55.4841 205.31 56.5187 205.31 57.8255C205.31 59.2413 204.874 60.3303 204.003 61.0926C203.241 61.855 202.206 62.2361 200.899 62.2361C199.484 62.2361 198.394 61.855 197.632 61.0926C196.87 60.2214 196.489 59.1324 196.489 57.8255ZM170.188 57.8255C170.188 59.1324 169.753 60.2214 168.882 61.0926C168.119 61.855 167.085 62.2361 165.778 62.2361C164.362 62.2361 163.273 61.855 162.511 61.0926C161.748 60.2214 161.367 59.1324 161.367 57.8255C161.367 56.4098 161.748 55.3208 162.511 54.5584C163.382 53.7961 164.471 53.4149 165.778 53.4149C167.194 53.4149 168.283 53.8506 169.045 54.7218C169.807 55.4841 170.188 56.5187 170.188 57.8255ZM174.599 62.2361C173.183 62.2361 172.094 61.855 171.332 61.0926C170.57 60.2214 170.188 59.1324 170.188 57.8255C170.188 56.4098 170.57 55.3208 171.332 54.5584C172.203 53.7961 173.292 53.4149 174.599 53.4149C176.015 53.4149 177.104 53.8506 177.866 54.7218C178.628 55.4841 179.01 56.5187 179.01 57.8255C179.01 59.1324 178.574 60.2214 177.703 61.0926C176.94 61.855 175.906 62.2361 174.599 62.2361ZM117.588 57.8255C117.588 56.4098 117.969 55.3208 118.731 54.5584C119.603 53.7961 120.692 53.4149 121.999 53.4149C123.414 53.4149 124.503 53.8506 125.266 54.7218C126.028 55.4841 126.409 56.5187 126.409 57.8255C126.409 59.1324 125.973 60.2214 125.102 61.0926C124.34 61.855 123.305 62.2361 121.999 62.2361C120.583 62.2361 119.494 61.855 118.731 61.0926C117.969 60.2214 117.588 59.1324 117.588 57.8255ZM113.177 62.2361C111.762 62.2361 110.673 61.855 109.91 61.0926C109.148 60.2214 108.767 59.1324 108.767 57.8255C108.767 56.4098 109.148 55.3208 109.91 54.5584C110.781 53.7961 111.87 53.4149 113.177 53.4149C114.593 53.4149 115.682 53.8506 116.444 54.7218C117.207 55.4841 117.588 56.5187 117.588 57.8255C117.588 59.1324 117.152 60.2214 116.281 61.0926C115.519 61.855 114.484 62.2361 113.177 62.2361ZM117.588 66.6467C117.588 65.231 117.969 64.142 118.731 63.3796C119.603 62.6173 120.692 62.2361 121.999 62.2361C123.414 62.2361 124.503 62.6718 125.266 63.543C126.028 64.3053 126.409 65.3399 126.409 66.6467C126.409 67.9536 125.973 69.0426 125.102 69.9138C124.34 70.6762 123.305 71.0573 121.999 71.0573C120.583 71.0573 119.494 70.6762 118.731 69.9138C117.969 69.0426 117.588 67.9536 117.588 66.6467ZM187.831 66.6467C187.831 65.3399 188.212 64.3053 188.974 63.543C189.846 62.6718 190.935 62.2361 192.241 62.2361C194.637 62.2361 196.108 63.3796 196.652 65.6666C196.979 63.3796 198.394 62.2361 200.899 62.2361C202.315 62.2361 203.404 62.6718 204.166 63.543C204.929 64.3053 205.31 65.3399 205.31 66.6467C205.31 68.0625 204.874 69.1515 204.003 69.9138C203.241 70.6762 202.206 71.0573 200.899 71.0573C198.503 71.0573 197.033 69.9138 196.489 67.6269C196.162 69.9138 194.746 71.0573 192.241 71.0573C190.826 71.0573 189.737 70.6762 188.974 69.9138C188.212 69.0426 187.831 67.9536 187.831 66.6467ZM170.188 66.6467C170.188 67.9536 169.753 69.0426 168.882 69.9138C168.119 70.6762 167.085 71.0573 165.778 71.0573C164.362 71.0573 163.273 70.6762 162.511 69.9138C161.748 69.0426 161.367 67.9536 161.367 66.6467C161.367 65.231 161.748 64.142 162.511 63.3796C163.382 62.6173 164.471 62.2361 165.778 62.2361C167.194 62.2361 168.283 62.6718 169.045 63.543C169.807 64.3053 170.188 65.3399 170.188 66.6467ZM113.177 71.0573C111.762 71.0573 110.673 70.6762 109.91 69.9138C109.148 69.0426 108.767 67.9536 108.767 66.6467C108.767 65.231 109.148 64.142 109.91 63.3796C110.781 62.6173 111.87 62.2361 113.177 62.2361C114.593 62.2361 115.682 62.6718 116.444 63.543C117.207 64.3053 117.588 65.3399 117.588 66.6467C117.588 67.9536 117.152 69.0426 116.281 69.9138C115.519 70.6762 114.484 71.0573 113.177 71.0573ZM179.01 66.6467C179.01 65.231 179.391 64.142 180.153 63.3796C181.024 62.6173 182.113 62.2361 183.42 62.2361C184.836 62.2361 185.925 62.6718 186.687 63.543C187.45 64.3053 187.831 65.3399 187.831 66.6467C187.831 67.9536 187.395 69.0426 186.524 69.9138C185.762 70.6762 184.727 71.0573 183.42 71.0573C182.004 71.0573 180.915 70.6762 180.153 69.9138C179.391 69.0426 179.01 67.9536 179.01 66.6467ZM174.599 71.0573C173.183 71.0573 172.094 70.6762 171.332 69.9138C170.57 69.0426 170.188 67.9536 170.188 66.6467C170.188 65.231 170.57 64.142 171.332 63.3796C172.203 62.6173 173.292 62.2361 174.599 62.2361C176.015 62.2361 177.104 62.6718 177.866 63.543C178.628 64.3053 179.01 65.3399 179.01 66.6467C179.01 67.9536 178.574 69.0426 177.703 69.9138C176.94 70.6762 175.906 71.0573 174.599 71.0573ZM187.831 75.4679C187.831 76.7748 187.395 77.8638 186.524 78.7351C185.762 79.4974 184.727 79.8785 183.42 79.8785C182.004 79.8785 180.915 79.4974 180.153 78.7351C179.391 77.8638 179.01 76.7748 179.01 75.4679C179.01 74.0522 179.391 72.9632 180.153 72.2008C181.024 71.4385 182.113 71.0573 183.42 71.0573C184.836 71.0573 185.925 71.493 186.687 72.3642C187.45 73.1265 187.831 74.1611 187.831 75.4679ZM187.831 75.4679C187.831 74.1611 188.212 73.1265 188.974 72.3642C189.846 71.493 190.935 71.0573 192.241 71.0573C194.637 71.0573 196.108 72.2008 196.652 74.4878C196.979 72.2008 198.394 71.0573 200.899 71.0573C202.315 71.0573 203.404 71.493 204.166 72.3642C204.929 73.1265 205.31 74.1611 205.31 75.4679C205.31 76.8837 204.874 77.9727 204.003 78.7351C203.241 79.4974 202.206 79.8785 200.899 79.8785C198.503 79.8785 197.033 78.7351 196.489 76.4481C196.162 78.7351 194.746 79.8785 192.241 79.8785C190.826 79.8785 189.737 79.4974 188.974 78.7351C188.212 77.8638 187.831 76.7748 187.831 75.4679ZM117.588 75.4679C117.588 74.0522 117.969 72.9632 118.731 72.2008C119.603 71.4385 120.692 71.0573 121.999 71.0573C123.414 71.0573 124.503 71.493 125.266 72.3642C126.028 73.1265 126.409 74.1611 126.409 75.4679C126.409 76.7748 125.973 77.8638 125.102 78.7351C124.34 79.4974 123.305 79.8785 121.999 79.8785C120.583 79.8785 119.494 79.4974 118.731 78.7351C117.969 77.8638 117.588 76.7748 117.588 75.4679ZM113.177 79.8785C111.762 79.8785 110.673 79.4974 109.91 78.7351C109.148 77.8638 108.767 76.7748 108.767 75.4679C108.767 74.0522 109.148 72.9632 109.91 72.2008C110.781 71.4385 111.87 71.0573 113.177 71.0573C114.593 71.0573 115.682 71.493 116.444 72.3642C117.207 73.1265 117.588 74.1611 117.588 75.4679C117.588 76.7748 117.152 77.8638 116.281 78.7351C115.519 79.4974 114.484 79.8785 113.177 79.8785ZM187.831 84.1258C187.831 81.2943 189.247 79.8785 192.078 79.8785C194.692 79.8785 196.162 80.9676 196.489 83.1457C197.033 80.9676 198.449 79.8785 200.736 79.8785C203.785 79.8785 205.31 81.2943 205.31 84.1258C205.31 85.4326 204.929 86.5217 204.166 87.3929C203.404 88.1552 202.369 88.5364 201.063 88.5364C198.558 88.5364 197.033 87.3929 196.489 85.1059C196.162 87.3929 194.801 88.5364 192.405 88.5364C189.355 88.5364 187.831 87.1206 187.831 84.2891V84.1258ZM187.831 84.2891C187.831 85.596 187.395 86.685 186.524 87.5563C185.762 88.3186 184.727 88.6997 183.42 88.6997C181.024 88.6997 179.554 87.5563 179.01 85.2693C178.683 87.5563 177.267 88.6997 174.762 88.6997C173.347 88.6997 172.258 88.3186 171.495 87.5563C170.733 86.685 170.352 85.596 170.352 84.2891C170.352 82.8734 170.733 81.7844 171.495 81.022C172.366 80.2597 173.456 79.8785 174.762 79.8785C177.158 79.8785 178.628 81.022 179.173 83.309C179.5 81.022 180.915 79.8785 183.42 79.8785C184.836 79.8785 185.925 80.3142 186.687 81.1854C187.45 81.9477 187.831 82.9823 187.831 84.2891ZM117.588 84.2891C117.588 85.596 117.152 86.685 116.281 87.5563C115.519 88.3186 114.484 88.6997 113.177 88.6997C111.762 88.6997 110.673 88.3186 109.91 87.5563C109.148 86.685 108.767 85.596 108.767 84.2891C108.767 82.8734 109.148 81.7844 109.91 81.022C110.781 80.2597 111.87 79.8785 113.177 79.8785C114.593 79.8785 115.682 80.3142 116.444 81.1854C117.207 81.9477 117.588 82.9823 117.588 84.2891ZM126.409 84.2891C126.409 85.596 125.973 86.685 125.102 87.5563C124.34 88.3186 123.305 88.6997 121.999 88.6997C120.583 88.6997 119.494 88.3186 118.731 87.5563C117.969 86.685 117.588 85.596 117.588 84.2891C117.588 82.8734 117.969 81.7844 118.731 81.022C119.603 80.2597 120.692 79.8785 121.999 79.8785C123.414 79.8785 124.503 80.3142 125.266 81.1854C126.028 81.9477 126.409 82.9823 126.409 84.2891ZM135.23 92.947C135.23 94.2538 134.795 95.3429 133.923 96.2141C133.161 96.9764 132.127 97.3576 130.82 97.3576C129.404 97.3576 128.315 96.9764 127.553 96.2141C126.79 95.3429 126.409 94.2538 126.409 92.947C126.409 91.5312 126.79 90.4422 127.553 89.6799C128.424 88.9176 129.513 88.5364 130.82 88.5364C132.235 88.5364 133.324 88.972 134.087 89.8432C134.849 90.6056 135.23 91.6401 135.23 92.947ZM196.489 92.947C196.489 94.2538 196.053 95.3429 195.182 96.2141C194.419 96.9764 193.385 97.3576 192.078 97.3576C189.573 97.3576 188.158 96.2141 187.831 93.9271C187.286 96.323 185.816 97.5209 183.42 97.5209C181.024 97.5209 179.554 96.3775 179.01 94.0905C178.683 96.3775 177.267 97.5209 174.762 97.5209C172.149 97.5209 170.678 96.323 170.352 93.9271C170.025 96.2141 168.609 97.3576 166.105 97.3576C164.58 97.3576 163.436 96.9764 162.674 96.2141C161.912 95.3429 161.531 94.2538 161.531 92.947C161.531 91.5312 161.912 90.4422 162.674 89.6799C163.545 88.9176 164.634 88.5364 165.941 88.5364C168.664 88.5364 170.188 89.7343 170.515 92.1302C170.842 89.8432 172.258 88.6997 174.762 88.6997C177.158 88.6997 178.628 89.8432 179.173 92.1302C179.5 89.8432 180.915 88.6997 183.42 88.6997C185.925 88.6997 187.341 89.8432 187.667 92.1302C188.212 89.7343 189.682 88.5364 192.078 88.5364C193.494 88.5364 194.583 88.972 195.345 89.8432C196.108 90.6056 196.489 91.6401 196.489 92.947ZM196.489 92.947C196.489 91.6401 196.87 90.6056 197.632 89.8432C198.503 88.972 199.592 88.5364 200.899 88.5364C202.315 88.5364 203.404 88.972 204.166 89.8432C204.929 90.6056 205.31 91.6401 205.31 92.947C205.31 94.3627 204.874 95.4518 204.003 96.2141C203.241 96.9764 202.206 97.3576 200.899 97.3576C199.484 97.3576 198.394 96.9764 197.632 96.2141C196.87 95.3429 196.489 94.2538 196.489 92.947ZM126.409 101.768C126.409 103.075 125.973 104.164 125.102 105.035C124.34 105.798 123.305 106.179 121.999 106.179C120.583 106.179 119.494 105.798 118.731 105.035C117.969 104.164 117.588 103.075 117.588 101.768C117.588 99.3723 118.731 97.9021 121.018 97.3576C118.731 97.0309 117.588 95.6151 117.588 93.1103C117.588 91.6946 117.969 90.6056 118.731 89.8432C119.603 89.0809 120.692 88.6997 121.999 88.6997C123.414 88.6997 124.503 89.1354 125.266 90.0066C126.028 90.7689 126.409 91.8035 126.409 93.1103C126.409 95.6151 125.266 97.0309 122.979 97.3576C125.266 97.9021 126.409 99.3723 126.409 101.768ZM117.588 93.1103C117.588 94.4172 117.152 95.5062 116.281 96.3775C115.519 97.1398 114.484 97.5209 113.177 97.5209C111.762 97.5209 110.673 97.1398 109.91 96.3775C109.148 95.5062 108.767 94.4172 108.767 93.1103C108.767 91.6946 109.148 90.6056 109.91 89.8432C110.781 89.0809 111.87 88.6997 113.177 88.6997C114.593 88.6997 115.682 89.1354 116.444 90.0066C117.207 90.7689 117.588 91.8035 117.588 93.1103ZM187.831 101.768C187.831 100.461 188.212 99.4268 188.974 98.6644C189.846 97.7932 190.935 97.3576 192.241 97.3576C194.637 97.3576 196.108 98.5011 196.652 100.788C196.979 98.5011 198.394 97.3576 200.899 97.3576C202.315 97.3576 203.404 97.7932 204.166 98.6644C204.929 99.4268 205.31 100.461 205.31 101.768C205.31 103.184 204.874 104.273 204.003 105.035C203.241 105.798 202.206 106.179 200.899 106.179C198.503 106.179 197.033 105.035 196.489 102.748C196.162 105.035 194.746 106.179 192.241 106.179C190.826 106.179 189.737 105.798 188.974 105.035C188.212 104.164 187.831 103.075 187.831 101.768ZM135.23 101.768C135.23 100.461 135.611 99.4268 136.374 98.6644C137.245 97.7932 138.334 97.3576 139.641 97.3576C142.037 97.3576 143.507 98.5011 144.052 100.788C144.378 98.5011 145.794 97.3576 148.299 97.3576C149.715 97.3576 150.804 97.7932 151.566 98.6644C152.328 99.4268 152.709 100.461 152.709 101.768C152.709 103.184 152.274 104.273 151.403 105.035C150.64 105.798 149.606 106.179 148.299 106.179C145.903 106.179 144.433 105.035 143.888 102.748C143.561 105.035 142.146 106.179 139.641 106.179C138.225 106.179 137.136 105.798 136.374 105.035C135.611 104.164 135.23 103.075 135.23 101.768ZM152.709 101.768C152.709 100.461 153.091 99.4268 153.853 98.6644C154.724 97.7932 155.813 97.3576 157.12 97.3576C158.536 97.3576 159.625 97.7932 160.387 98.6644C161.149 99.4268 161.531 100.461 161.531 101.768C161.531 103.184 161.095 104.273 160.224 105.035C159.461 105.798 158.427 106.179 157.12 106.179C155.704 106.179 154.615 105.798 153.853 105.035C153.091 104.164 152.709 103.075 152.709 101.768ZM179.173 101.932C179.173 103.238 178.737 104.327 177.866 105.199C177.104 105.961 176.069 106.342 174.762 106.342C172.149 106.342 170.678 105.144 170.352 102.748C170.025 105.035 168.609 106.179 166.105 106.179C164.58 106.179 163.436 105.798 162.674 105.035C161.912 104.164 161.531 103.075 161.531 101.768C161.531 100.352 161.912 99.2634 162.674 98.5011C163.545 97.7388 164.634 97.3576 165.941 97.3576C168.664 97.3576 170.188 98.5555 170.515 100.951C170.842 98.6644 172.258 97.5209 174.762 97.5209C176.178 97.5209 177.267 97.9566 178.029 98.8278C178.792 99.5901 179.173 100.625 179.173 101.932ZM135.23 101.768C135.23 103.075 134.795 104.164 133.923 105.035C133.161 105.798 132.127 106.179 130.82 106.179C129.404 106.179 128.315 105.798 127.553 105.035C126.79 104.164 126.409 103.075 126.409 101.768C126.409 100.352 126.79 99.2634 127.553 98.5011C128.424 97.7388 129.513 97.3576 130.82 97.3576C132.235 97.3576 133.324 97.7932 134.087 98.6644C134.849 99.4268 135.23 100.461 135.23 101.768ZM135.23 110.589C135.23 109.283 135.611 108.248 136.374 107.486C137.245 106.614 138.334 106.179 139.641 106.179C142.037 106.179 143.507 107.322 144.052 109.609C144.378 107.322 145.794 106.179 148.299 106.179C149.715 106.179 150.804 106.614 151.566 107.486C152.328 108.248 152.709 109.283 152.709 110.589C152.709 112.005 152.274 113.094 151.403 113.857C150.64 114.619 149.606 115 148.299 115C145.903 115 144.433 113.857 143.888 111.57C143.561 113.857 142.146 115 139.641 115C138.225 115 137.136 114.619 136.374 113.857C135.611 112.985 135.23 111.896 135.23 110.589ZM187.831 110.589C187.831 109.283 188.212 108.248 188.974 107.486C189.846 106.614 190.935 106.179 192.241 106.179C194.637 106.179 196.108 107.322 196.652 109.609C196.979 107.322 198.394 106.179 200.899 106.179C202.315 106.179 203.404 106.614 204.166 107.486C204.929 108.248 205.31 109.283 205.31 110.589C205.31 112.005 204.874 113.094 204.003 113.857C203.241 114.619 202.206 115 200.899 115C198.503 115 197.033 113.857 196.489 111.57C196.162 113.857 194.746 115 192.241 115C190.826 115 189.737 114.619 188.974 113.857C188.212 112.985 187.831 111.896 187.831 110.589ZM135.23 110.589C135.23 111.896 134.795 112.985 133.923 113.857C133.161 114.619 132.127 115 130.82 115C129.404 115 128.315 114.619 127.553 113.857C126.79 112.985 126.409 111.896 126.409 110.589C126.409 109.174 126.79 108.085 127.553 107.322C128.424 106.56 129.513 106.179 130.82 106.179C132.235 106.179 133.324 106.614 134.087 107.486C134.849 108.248 135.23 109.283 135.23 110.589ZM152.709 110.589C152.709 109.283 153.091 108.248 153.853 107.486C154.724 106.614 155.813 106.179 157.12 106.179C158.536 106.179 159.625 106.614 160.387 107.486C161.149 108.248 161.531 109.283 161.531 110.589C161.531 112.005 161.095 113.094 160.224 113.857C159.461 114.619 158.427 115 157.12 115C155.704 115 154.615 114.619 153.853 113.857C153.091 112.985 152.709 111.896 152.709 110.589ZM161.531 110.589C161.531 109.283 161.912 108.248 162.674 107.486C163.545 106.614 164.634 106.179 165.941 106.179C167.357 106.179 168.446 106.614 169.208 107.486C169.971 108.248 170.352 109.283 170.352 110.589C170.352 112.005 169.916 113.094 169.045 113.857C168.283 114.619 167.248 115 165.941 115C164.525 115 163.436 114.619 162.674 113.857C161.912 112.985 161.531 111.896 161.531 110.589Z" fill="#FFF052"/>
<path d="M4.49417 31.5253C4.49417 30.2184 4.87533 29.1839 5.63766 28.4215C6.50889 27.5503 7.59793 27.1147 8.90477 27.1147H13.152V13.8829C13.152 12.576 13.5332 11.5414 14.2955 10.7791C15.1667 9.90789 16.2558 9.47227 17.5626 9.47227H21.9732V5.06167C21.9732 3.75482 22.3544 2.72024 23.1167 1.95792C23.9879 1.08668 25.077 0.651068 26.3838 0.651068H70.4898C71.7967 0.651068 72.8313 1.08668 73.5936 1.95792C74.4648 2.72024 74.9004 3.75482 74.9004 5.06167V9.47227H79.311C80.6179 9.47227 81.6525 9.90789 82.4148 10.7791C83.286 11.5414 83.7216 12.576 83.7216 13.8829V27.1147H88.1322C89.4391 27.1147 90.4737 27.5503 91.236 28.4215C92.1072 29.1839 92.5428 30.2184 92.5428 31.5253V44.5937H74.9004V35.7725H70.4898C69.183 35.7725 68.094 35.3914 67.2227 34.629C66.4604 33.7578 66.0792 32.6688 66.0792 31.3619V18.2935H30.7944V31.3619C30.7944 32.6688 30.3588 33.7578 29.4876 34.629C28.7253 35.3914 27.6907 35.7725 26.3838 35.7725H21.9732V79.7152H26.3838C27.6907 79.7152 28.7253 80.1508 29.4876 81.022C30.3588 81.7844 30.7944 82.8189 30.7944 84.1258V97.3576H66.0792V84.2891C66.0792 82.9823 66.4604 81.9477 67.2227 81.1854C68.094 80.3142 69.183 79.8785 70.4898 79.8785H74.9004V71.0573H92.5428V84.1258C92.5428 85.4326 92.1072 86.5217 91.236 87.3929C90.4737 88.1552 89.4391 88.5364 88.1322 88.5364H83.7216V101.768C83.7216 103.075 83.286 104.164 82.4148 105.035C81.6525 105.798 80.6179 106.179 79.311 106.179H74.9004V110.589C74.9004 111.896 74.4648 112.985 73.5936 113.857C72.8313 114.619 71.7967 115 70.4898 115H26.5472C25.2403 115 24.1513 114.619 23.2801 113.857C22.5177 112.985 22.1366 111.896 22.1366 110.589V106.179H17.5626C16.2558 106.179 15.1667 105.798 14.2955 105.035C13.5332 104.164 13.152 103.075 13.152 101.768V88.5364H8.90477C7.59793 88.5364 6.50889 88.1552 5.63766 87.3929C4.87533 86.5217 4.49417 85.4326 4.49417 84.1258V31.5253Z" fill="#E9493D"/>
</svg>
